<svg xmlns="http://www.w3.org/2000/svg" width="31" height="9" viewBox="0 0 31 9">
    <defs>
        <style>
            #Filiais .cls-1 {
            fill: #f44336;
            stroke: none
            }
        </style>
    </defs>
    <title>Titles</title>
    <g id="Filiais">
        <path class="cls-1" d="M4,0H5V2H4A2,2,0,0,0,2,4H5V6H2V9H0V4A4,4,0,0,1,4,0ZM6,9H8V2H6Zm6,0h2V2H12ZM22,9h2V2H22ZM9,9h2V0H9Zm6-2V9h3V7H17a2.9,2.9,0,0,1,2-2.8V9h2V2H20A5,5,0,0,0,15,7ZM26,2H25V9h2V4.2A2.9,2.9,0,0,1,29,7H28V9h3V7A5,5,0,0,0,26,2Z" />
    </g>
</svg>