<svg xmlns="http://www.w3.org/2000/svg" width="70" height="9" viewBox="0 0 70 9">
    <defs>
        <style>
            #Professores .cls-1 {
            fill: #f44336;
            stroke: none
            }
        </style>
    </defs>
    <title>Titles</title>
    <g id="Professores">
        <path class="cls-1" d="M6,4V5H3V3h.7A1.9,1.9,0,0,0,2,2V9H0V0H2A4,4,0,0,1,6,4ZM7,5V9H9V5a.9.9,0,0,1,1-1h1V2H10A2.9,2.9,0,0,0,7,5ZM52,5V9h2V5a.9.9,0,0,1,1-1h1V2H55A2.9,2.9,0,0,0,52,5ZM32,2H31V9h2V4.2A2.9,2.9,0,0,1,35,7H34V9h3V7A5,5,0,0,0,32,2Zm7,0H38V9h2V4.2A2.9,2.9,0,0,1,42,7H41V9h3V7A5,5,0,0,0,39,2ZM65,2H64V9h2V4.2A2.9,2.9,0,0,1,68,7H67V9h3V7A5,5,0,0,0,65,2ZM19,3V9h2V6h2V4H21V3a.9.9,0,0,1,1-1h1V0H22A2.9,2.9,0,0,0,19,3ZM18,5V9H15a2.9,2.9,0,0,1-3-3V2h3A2.9,2.9,0,0,1,18,5ZM16,5a.9.9,0,0,0-1-1H14V6a.9.9,0,0,0,1,1h1ZM51,5V9H48a2.9,2.9,0,0,1-3-3V2h3A2.9,2.9,0,0,1,51,5ZM49,5a.9.9,0,0,0-1-1H47V6a.9.9,0,0,0,1,1h1ZM27,2H24V6a2.9,2.9,0,0,0,3,3h1V7H27a.9.9,0,0,1-1-1V4h1a.9.9,0,0,1,1,1H27V6h3V5A2.9,2.9,0,0,0,27,2ZM60,2H57V6a2.9,2.9,0,0,0,3,3h1V7H60a.9.9,0,0,1-1-1V4h1a.9.9,0,0,1,1,1H60V6h3V5A2.9,2.9,0,0,0,60,2Z" />
    </g>
</svg>