<svg id="Sobre" xmlns="http://www.w3.org/2000/svg" width="31" height="9" viewBox="0 0 31 9">
    <defs>
        <style>
            #Sobre .cls-1 {
            fill: #fff;
            stroke: none
            }
        </style>
    </defs>
    <title>Titles</title>
    <path class="cls-1" d="M23,2h1V4H23a.9.9,0,0,0-1,1V9H20V5A2.9,2.9,0,0,1,23,2ZM12,5V9H9A2.9,2.9,0,0,1,6,6V2H9A2.9,2.9,0,0,1,12,5ZM10,5A.9.9,0,0,0,9,4H8V6A.9.9,0,0,0,9,7h1ZM28,2H25V6a2.9,2.9,0,0,0,3,3h1V7H28a.9.9,0,0,1-1-1V4h1a.9.9,0,0,1,1,1H28V6h3V5A2.9,2.9,0,0,0,28,2ZM0,3V5H3V6A.9.9,0,0,1,2,7H0V9H2A2.9,2.9,0,0,0,5,6V4H2V3A.9.9,0,0,1,3,2H5V0H3A2.9,2.9,0,0,0,0,3ZM16,6h1a.9.9,0,0,1-1,1H15V0H13V9h3a2.9,2.9,0,0,0,3-3V4H16Z" />
</svg>