<svg style="display: none">
    <defs>
        <style>
            .cls-1 {
            stroke-linecap: round;
            stroke-linejoin: round;
            stroke-width: 2px;
            }
        </style>
        <symbol id="icon_circle">
            <circle class="cls-1" cx="10.5" cy="10.5" r="9.5"/>
        </symbol>
        <symbol id="icon_youtube">
            <path d="M22.0673,6.949a2.6311,2.6311,0,0,0-1.8508-1.851c-1.6433-.45-8.2167-.45-8.2167-.45s-6.5732,0-8.2166.4326A2.6849,2.6849,0,0,0,1.9324,6.949,27.7256,27.7256,0,0,0,1.5,12a27.6235,27.6235,0,0,0,.4324,5.051,2.6319,2.6319,0,0,0,1.851,1.851c1.6605.45,8.2166.45,8.2166.45s6.5732,0,8.2165-.4326a2.6312,2.6312,0,0,0,1.851-1.8508,27.7262,27.7262,0,0,0,.4324-5.051A26.3147,26.3147,0,0,0,22.0673,6.949Zm-12.16,8.1993V8.8517L15.373,12Z" />
        </symbol>
        <symbol id="icon_instagram">
            <!--<path d="M16.244,1.5H7.756A6.263,6.263,0,0,0,1.5,7.756v8.488A6.263,6.263,0,0,0,7.756,22.5h8.488A6.263,6.263,0,0,0,22.5,16.244V7.756A6.2631,6.2631,0,0,0,16.244,1.5ZM12,16a4,4,0,1,1,4-4A4,4,0,0,1,12,16ZM17.4419,4.6094a2,2,0,1,1-2,2A2,2,0,0,1,17.4419,4.6094Z" />-->
            <path d="M16.244,1.5H7.756A6.263,6.263,0,0,0,1.5,7.756v8.488A6.263,6.263,0,0,0,7.756,22.5h8.488A6.263,6.263,0,0,0,22.5,16.244V7.756A6.2631,6.2631,0,0,0,16.244,1.5Zm4.1434,14.744a4.1434,4.1434,0,0,1-4.1434,4.1434H7.756A4.1434,4.1434,0,0,1,3.6126,16.244V7.756A4.1434,4.1434,0,0,1,7.756,3.6126h8.488A4.1434,4.1434,0,0,1,20.3874,7.756v8.488ZM12,6.5687A5.4313,5.4313,0,1,0,17.4313,12,5.4375,5.4375,0,0,0,12,6.5687Zm0,8.75A3.3187,3.3187,0,1,1,15.3187,12,3.3187,3.3187,0,0,1,12,15.3187ZM17.4419,5.308A1.3015,1.3015,0,1,1,16.14,6.6094,1.3015,1.3015,0,0,1,17.4419,5.308Z" />
        </symbol>
        <symbol id="icon_facebook">
            <path d="M19.6706,1.5H4.33a2.83,2.83,0,0,0-2.83,2.83V19.67A2.83,2.83,0,0,0,4.33,22.5h7.5658l.0128-7.5043h-1.95a.46.46,0,0,1-.46-.4582L9.49,12.1185a.46.46,0,0,1,.46-.4618h1.9461V9.3194A3.8187,3.8187,0,0,1,15.9724,5.13h1.9855a.46.46,0,0,1,.46.46V7.63a.46.46,0,0,1-.46.46L16.74,8.09c-1.3158,0-1.5707.6252-1.5707,1.5429v2.0235H18.06a.46.46,0,0,1,.4568.5142L18.2305,14.59a.46.46,0,0,1-.4568.4059H15.1818L15.1689,22.5h4.5018a2.83,2.83,0,0,0,2.83-2.83V4.33A2.83,2.83,0,0,0,19.6706,1.5Z" />
        </symbol>
        <symbol id="icon_view">
            <path class="cls-1" d="M21.5,12S18,17.5,12,17.5,2.5,12,2.5,12,6,6.5,12,6.5,21.5,12,21.5,12ZM12,9.5A2.5,2.5,0,1,0,14.5,12,2.5,2.5,0,0,0,12,9.5Z" />
        </symbol>
        <symbol id="icon_locker">
            <path class="cls-1" d="M13,21.5H11a5,5,0,0,1-5-5V11.5455A2.0455,2.0455,0,0,1,8.0455,9.5h7.909A2.0455,2.0455,0,0,1,18,11.5455V16.5A5,5,0,0,1,13,21.5Zm-1-8A2.5,2.5,0,1,0,14.5,16,2.5,2.5,0,0,0,12,13.5Z" />
            <path class="cls-1" d="M9.5,9.5V5a2.5,2.5,0,0,1,5,0V5a2.5,2.5,0,0,0-5,0Z" />
        </symbol>
        <symbol id="icon_search">
            <circle class="cls-1" cx="6.5" cy="6.5" r="5.5" transform="translate(1.5 1.5)"/>
            <path class="cls-1" d="M12,12l9.5,9.5M12,12l9.5,9.5"/>
        </symbol>
        <symbol id="icon_maximize">
            <polygon class="cls-1" points="12 3.037 12 1 1 1 1 12 3.038 12 1 12 1 1 12 1 12 3.037"/>
            <rect class="cls-1" x="6.5" y="6.5" width="13.5" height="13.5"/>
        </symbol>
        <symbol id="icon_share">
            <path class="cls-1" d="M12,2.5,17.5,8,12,13.5M17,8H11.5a5,5,0,0,0-5,5v8.5" />
        </symbol>
        <symbol id="icon_remove">
            <path class="cls-1" d="M21.5,6.5l-19,11m0-11,19,11" />
        </symbol>
        <symbol id="icon_add">
            <path class="cls-1" d="M12,6.5v11M2.5,12h19" />
        </symbol>
        <symbol id="icon_chevrons">
            <path class="cls-1" d="M21.5,12.65l-9.5-6-9.5,6,9.5-6Zm-14,1.56L12,11.37l4.5,2.84L12,11.37Z"/> <!--transform="translate(-1.5 -5.65)"-->
        </symbol>
        <symbol id="icon_chevronTop">
            <polygon class="cls-1" points="1 7 10.5 1 20 7 10.5 1 1 7" transform="translate(2.5 8)" />
        </symbol>
        <symbol id="icon_chevronRight">
            <polygon class="cls-1" points="1 1 7 10.5 1 20 7 10.5 1 1" transform="translate(8 2.5)" />
        </symbol>
        <symbol id="icon_chevronBottom">
            <polygon class="cls-1" points="1 1 10.5 7 20 1 10.5 7 1 1" transform="translate(2.5 8)" />
        </symbol>
        <symbol id="icon_user">
            <path class="cls-1" d="M20.8344,21.5a9.5041,9.5041,0,0,0-17.6688,0,9.5041,9.5041,0,0,1,17.6688,0Z"/>
            <circle class="cls-1" cx="9.8344" cy="6.5" r="5.5" transform="translate(2 1.5)"/>
        </symbol>
        <symbol id="icon_local">
            <path class="cls-1" d="M17.046,10.19,12,21.5,6.9537,10.191a5.5,5.5,0,1,1,10.0923.0006M12,5.5A2.5,2.5,0,1,0,14.5,8,2.5,2.5,0,0,0,12,5.5Z" />
        </symbol>
        <symbol id="icon_people">
            <path class="cls-1" d="M16.5,18.25h5a5.5,5.5,0,0,0-5.5-5.5h0a5.5072,5.5072,0,0,0-1.3758.1735A5.5072,5.5072,0,0,1,16,12.75h0a5.5,5.5,0,0,1,5.5,5.5h-5Z" />
            <path class="cls-1" d="M2.5,18.25h0A5.5,5.5,0,0,1,8,12.75H8a5.5,5.5,0,0,1,5.5,5.5H2.5ZM8,5.75a2.5,2.5,0,1,0,2.5,2.5A2.5,2.5,0,0,0,8,5.75Zm8,0a2.5,2.5,0,1,0,2.5,2.5A2.5,2.5,0,0,0,16,5.75Z" />
        </symbol>
        <symbol id="icon_home">
            <path class="cls-1" d="M2.5,21.5h6V20A3.5,3.5,0,0,1,12,16.5h0A3.5,3.5,0,0,1,15.5,20v1.5h6V8.5L12,2.5l-9.5,6Z" />
        </symbol>
        <symbol id="icon_logo">
            <path class="cls-1" d="M20.044,6.9435,13,16,5.319,5.2466,13,16ZM12.0112,2.5A9.5056,9.5056,0,1,1,12,2.5a9.4944,9.4944,0,1,0,.0112,0Z"/>
        </symbol>
        <symbol id="icon_phone">
            <circle class="cls-1" cx="6" cy="4" r="3"/>
            <circle class="cls-1" cx="17" cy="15" r="3"/>
            <path class="cls-1" d="M2.5,2.5a19,19,0,0,0,19,19A19,19,0,0,1,2.5,2.5Z" transform="translate(-1.5 -1.5)"/>
        </symbol>
    </defs>
</svg>