<svg style="display: none">
    <defs>
        <style>
            .cls-1 {
            stroke-linecap: round;
            stroke-linejoin: round;
            stroke-width: 2px;
            }
        </style>
        <symbol id="icon_about">
            <path class="cls-1" d="M12,2.5A9.5,9.5,0,1,1,2.5,12,9.5,9.5,0,0,1,12,2.5,9.6,9.6,0,0,0,2.5,12,9.6,9.6,0,0,0,12,21.5a9.5,9.5,0,0,0,0-19Zm0,15v-7m0-4Z" />
        </symbol>
        <symbol id="icon_phone">
            <circle class="cls-1" cx="6" cy="4" r="3" transform="translate(1.5 1.5)" />
            <circle class="cls-1" cx="17" cy="15" r="3" transform="translate(1.5 1.5)" />
            <path class="cls-1" d="M2.5,2.5a19,19,0,0,0,19,19A19,19,0,0,1,2.5,2.5Z" />
        </symbol>
        <symbol id="icon_circle">
            <circle class="cls-1" cx="10.5" cy="10.5" r="9.5" />
        </symbol>
        <symbol id="icon_youtube">
            <path class="cls-1" d="M21.1,7.5a2.3,2.3,0,0,0-1.7-1.6A56.2,56.2,0,0,0,12,5.5a56.2,56.2,0,0,0-7.4.4A2.3,2.3,0,0,0,2.9,7.5,24,24,0,0,0,2.5,12a24,24,0,0,0,.4,4.5,2.3,2.3,0,0,0,1.7,1.6,56.2,56.2,0,0,0,7.4.4,56.2,56.2,0,0,0,7.4-.4,2.3,2.3,0,0,0,1.7-1.6,24,24,0,0,0,.4-4.5A24,24,0,0,0,21.1,7.5ZM11.3,9.2l2.8,1.4a1.5,1.5,0,0,1,0,2.8l-2.8,1.4A1.5,1.5,0,0,1,9,13.4V10.6A1.5,1.5,0,0,1,11.3,9.2Z" />
        </symbol>
        <symbol id="icon_instagram">
            <path class="cls-1" d="M16,21.5H8A5.5,5.5,0,0,1,2.5,16V8A5.5,5.5,0,0,1,8,2.5h8A5.5,5.5,0,0,1,21.5,8v8A5.5,5.5,0,0,1,16,21.5Zm-4-14A4.5,4.5,0,1,0,16.5,12,4.5,4.5,0,0,0,12,7.5ZM17.5,6a.5.5,0,1,0,.5.5A.5.5,0,0,0,17.5,6Z" />
        </symbol>
        <symbol id="icon_facebook">
            <path d="M19.6706,1.5H4.33a2.83,2.83,0,0,0-2.83,2.83V19.67A2.83,2.83,0,0,0,4.33,22.5h7.5658l.0128-7.5043h-1.95a.46.46,0,0,1-.46-.4582L9.49,12.1185a.46.46,0,0,1,.46-.4618h1.9461V9.3194A3.8187,3.8187,0,0,1,15.9724,5.13h1.9855a.46.46,0,0,1,.46.46V7.63a.46.46,0,0,1-.46.46L16.74,8.09c-1.3158,0-1.5707.6252-1.5707,1.5429v2.0235H18.06a.46.46,0,0,1,.4568.5142L18.2305,14.59a.46.46,0,0,1-.4568.4059H15.1818L15.1689,22.5h4.5018a2.83,2.83,0,0,0,2.83-2.83V4.33A2.83,2.83,0,0,0,19.6706,1.5Z" />
        </symbol>
        <symbol id="icon_view">
            <path class="cls-1" d="M21.5,12S18,17.5,12,17.5,2.5,12,2.5,12,6,6.5,12,6.5,21.5,12,21.5,12ZM12,9.5A2.5,2.5,0,1,0,14.5,12,2.5,2.5,0,0,0,12,9.5Z" />
        </symbol>
        <symbol id="icon_locker">
            <path class="cls-1" d="M13,21.5H11a5,5,0,0,1-5-5V11.5455A2.0455,2.0455,0,0,1,8.0455,9.5h7.909A2.0455,2.0455,0,0,1,18,11.5455V16.5A5,5,0,0,1,13,21.5Zm-1-8A2.5,2.5,0,1,0,14.5,16,2.5,2.5,0,0,0,12,13.5Z" />
            <path class="cls-1" d="M9.5,9.5V5a2.5,2.5,0,0,1,5,0V5a2.5,2.5,0,0,0-5,0Z" />
        </symbol>
        <symbol id="icon_search">
            <circle class="cls-1" cx="6.5" cy="6.5" r="5.5" transform="translate(1.5 1.5)" />
            <path class="cls-1" d="M12,12l9.5,9.5M12,12l9.5,9.5" />
        </symbol>
        <symbol id="icon_maximize">
            <polygon class="cls-1" points="12 3.037 12 1 1 1 1 12 3.038 12 1 12 1 1 12 1 12 3.037" />
            <rect class="cls-1" x="6.5" y="6.5" width="13.5" height="13.5" />
        </symbol>
        <symbol id="icon_share">
            <path class="cls-1" d="M12,2.5,17.5,8,12,13.5M17,8H11.5a5,5,0,0,0-5,5v8.5" />
        </symbol>
        <symbol id="icon_remove">
            <path class="cls-1" d="M21.5,6.5l-19,11m0-11,19,11" />
        </symbol>
        <symbol id="icon_add">
            <path class="cls-1" d="M12,6.5v11M2.5,12h19" />
        </symbol>
        <symbol id="icon_chevrons">
            <path class="cls-1" d="M21.5,12.65l-9.5-6-9.5,6,9.5-6Zm-14,1.56L12,11.37l4.5,2.84L12,11.37Z" />
        </symbol>
        <symbol id="icon_chevronTop">
            <polygon class="cls-1" points="1 7 10.5 1 20 7 10.5 1 1 7" transform="translate(2.5 8)" />
        </symbol>
        <symbol id="icon_chevronRight">
            <polygon class="cls-1" points="1 1 7 10.5 1 20 7 10.5 1 1" transform="translate(8 2.5)" />
        </symbol>
        <symbol id="icon_chevronBottom">
            <polygon class="cls-1" points="1 1 10.5 7 20 1 10.5 7 1 1" transform="translate(2.5 8)" />
        </symbol>
        <symbol id="icon_user">
            <path class="cls-1" d="M20.8344,21.5a9.5041,9.5041,0,0,0-17.6688,0,9.5041,9.5041,0,0,1,17.6688,0Z" />
            <circle class="cls-1" cx="9.8344" cy="6.5" r="5.5" transform="translate(2 1.5)" />
        </symbol>
        <symbol id="icon_local">
            <path class="cls-1" d="M17.046,10.19,12,21.5,6.9537,10.191a5.5,5.5,0,1,1,10.0923.0006M12,5.5A2.5,2.5,0,1,0,14.5,8,2.5,2.5,0,0,0,12,5.5Z" />
        </symbol>
        <symbol id="icon_people">
            <path class="cls-1" d="M16.5,18.25h5a5.5,5.5,0,0,0-5.5-5.5h0a5.5072,5.5072,0,0,0-1.3758.1735A5.5072,5.5072,0,0,1,16,12.75h0a5.5,5.5,0,0,1,5.5,5.5h-5Z" />
            <path class="cls-1" d="M2.5,18.25h0A5.5,5.5,0,0,1,8,12.75H8a5.5,5.5,0,0,1,5.5,5.5H2.5ZM8,5.75a2.5,2.5,0,1,0,2.5,2.5A2.5,2.5,0,0,0,8,5.75Zm8,0a2.5,2.5,0,1,0,2.5,2.5A2.5,2.5,0,0,0,16,5.75Z" />
        </symbol>
        <symbol id="icon_home">
            <path class="cls-1" d="M2.5,21.5h6V20A3.5,3.5,0,0,1,12,16.5h0A3.5,3.5,0,0,1,15.5,20v1.5h6V8.5L12,2.5l-9.5,6Z" />
        </symbol>
        <symbol id="icon_logo">
            <path class="cls-1" d="M189,12.3l-6.5-9.2A10.4,10.4,0,0,1,188,1.5h0a10.4,10.4,0,0,1,7.2,2.9ZM196.6,6,189,19,180.8,4.4A10.5,10.5,0,1,0,196.6,6Z" transform="translate(-176 0)" />
        </symbol>
    </defs>
</svg>