<svg xmlns="http://www.w3.org/2000/svg" width="66" height="20" viewBox="0 0 66 20">
    <defs>
        <style>
            .cls-1,
            .cls-2,
            .cls-3 {
            fill: none;
            stroke-linecap: square;
            stroke-miterlimit: 10;
            }

            .cls-1,
            .cls-2 {
            stroke: #f44336;
            }

            .cls-1,
            .cls-3 {
            stroke-width: 2px;
            }

            .cls-2 {
            stroke-width: 3px;
            }

            .cls-3 {
            stroke: #9e9e9e;
            }
        </style>
    </defs>
    <title>Marca</title>
    <g id="Policromia">
        <polygon class="cls-1" points="17.6 5.2 10.9 16.6 3.7 3.6 10.9 13.8 17.6 5.2" />
        <path class="cls-2" d="M11,8.5A8.5,8.5,0,1,1,2.5,17,8.5,8.5,0,0,1,11,8.5,8.5,8.5,0,1,0,19.5,17,8.5,8.5,0,0,0,11,8.5Z" transform="translate(-1 -7)" />
        <path class="cls-1" d="M29,8v4a2.9,2.9,0,0,1-3,3H24V8m8,0v7m6-7H35v4a2.9,2.9,0,0,0,3,3h0m6-4h1a2.9,2.9,0,0,0-3-3H41v4a2.9,2.9,0,0,0,3,3h1m20-4h1a2.9,2.9,0,0,0-3-3H62v4a2.9,2.9,0,0,0,3,3h1M53,15V11a2.9,2.9,0,0,0-3-3H48v7m8-7v4a2.9,2.9,0,0,0,3,3h0m0-4H56" transform="translate(-1 -7)" />
        <path class="cls-3" d="M34,19v6a.9.9,0,0,1-1,1H31a.9.9,0,0,1-1-1V19m15,0v7m8-4V21a2,2,0,0,0-2-2H48v5a2,2,0,0,0,2,2h3ZM42,26V22a2.9,2.9,0,0,0-3-3H37v7m22-7h0a2.9,2.9,0,0,0-3,3v4M24,26h0a2.9,2.9,0,0,0,3-3V19H24" transform="translate(-1 -7)" />
    </g>
</svg>