<?xml version="1.0" standalone="no"?>
<!DOCTYPE svg PUBLIC "-//W3C//DTD SVG 1.1//EN" "http://www.w3.org/Graphics/SVG/1.1/DTD/svg11.dtd" >
<svg>
<metadata>
Created by FontForge 20120731 at Mon Jul  1 08:55:28 2019
 By www
Copyright (c) 2004 by VetteLetters.nl. All rights reserved.
</metadata>
<defs>
<font id="VLNLDecksW00-Bold" horiz-adv-x="764" >
  <font-face 
    font-family="VLNLDecksW00-Bold"
    font-weight="700"
    font-stretch="normal"
    units-per-em="1000"
    panose-1="2 0 5 7 0 0 0 2 0 4"
    ascent="800"
    descent="-200"
    x-height="800"
    cap-height="800"
    bbox="-15 -290 1383 1092"
    underline-thickness="50"
    underline-position="-75"
    unicode-range="U+0020-FB02"
  />
<missing-glyph horiz-adv-x="400" 
 />
    <glyph glyph-name=".notdef" horiz-adv-x="400" 
 />
    <glyph glyph-name=".null" horiz-adv-x="0" 
 />
    <glyph glyph-name="nonmarkingreturn" horiz-adv-x="333" 
 />
    <glyph glyph-name="space" unicode=" " horiz-adv-x="400" 
 />
    <glyph glyph-name="exclam" unicode="!" horiz-adv-x="318" 
d="M268 776v-452q0 -24 -24 -24h-170q-24 0 -24 24v452q0 24 24 24h170q24 0 24 -24zM268 176v-152q0 -24 -24 -24h-170q-24 0 -24 24v152q0 24 24 24h170q24 0 24 -24z" />
    <glyph glyph-name="quotedbl" unicode="&#x22;" horiz-adv-x="338" 
d="M303 816v-222q0 -24 -24 -24h-70q-24 0 -24 24v222q0 24 24 24h70q24 0 24 -24zM153 816v-222q0 -24 -24 -24h-70q-24 0 -24 24v222q0 24 24 24h70q24 0 24 -24z" />
    <glyph glyph-name="numbersign" unicode="#" horiz-adv-x="676" 
d="M641 498v-102q0 -24 -24 -24h-81q-24 0 -24 -24v-81q0 -24 -24 -24h-102q-24 0 -24 24v81q0 24 -24 24t-24 -24v-81q0 -24 -24 -24h-102q-24 0 -24 24v81q0 24 -24 24h-81q-24 0 -24 24v102q0 24 24 24h81q24 0 24 24t-24 24h-81q-24 0 -24 24v102q0 24 24 24h81
q24 0 24 24v81q0 24 24 24h102q24 0 24 -24v-81q0 -24 24 -24t24 24v81q0 24 24 24h102q24 0 24 -24v-81q0 -24 24 -24h81q24 0 24 -24v-102q0 -24 -24 -24h-81q-24 0 -24 -24t24 -24h81q24 0 24 -24zM370 546q0 32 -32 32t-32 -32t32 -32t32 32z" />
    <glyph glyph-name="dollar" unicode="$" horiz-adv-x="906" 
d="M856 317v-125q0 -79 -57 -136q-56 -56 -135 -56h-86q-24 0 -24 -24v-81q0 -24 -24 -24h-152q-24 0 -24 24v81q0 24 -24 24h-182q-24 0 -24 24v171q0 24 24 24h189q8 0 12.5 6t4.5 17v25q0 24 -24 24h-88q-78 0 -136 56q-56 58 -56 136v125q0 79 56 135q57 57 136 57h88
q24 0 24 24v81q0 24 24 24h152q24 0 24 -24v-81q0 -24 24 -24h181q24 0 24 -24v-169q0 -24 -24 -24h-188q-8 0 -12.5 -6.5t-4.5 -17.5v-26q0 -24 24 -24h86q80 0 135 -57q57 -55 57 -135zM354 533v26q0 11 -4.5 17.5t-12.5 6.5h-20q-42 0 -42 -38q0 -36 42 -36h13
q24 0 24 24zM631 254q0 37 -42 37h-11q-24 0 -24 -24v-25q0 -11 4.5 -17t12.5 -6h18q42 0 42 35z" />
    <glyph glyph-name="percent" unicode="%" horiz-adv-x="933" 
d="M393 704v-118q0 -18 -9.5 -40.5t-33.5 -39t-53 -16.5h-121q-18 0 -40.5 9.5t-39 33.5t-16.5 53v118q0 18 9.5 40.5t33.5 39t53 16.5h121q18 0 40.5 -9.5t39 -33.5t16.5 -53zM284 623v44q0 24 -24 24h-46q-24 0 -24 -24v-44q0 -24 24 -24h46q24 0 24 24zM707 830l-2 -4
l-274 -852q-3 -11 -10.5 -17.5t-15.5 -6.5h-160q-11 0 -17.5 5.5t-5.5 14.5l1 4l274 852q8 24 26 24h160q12 0 18.5 -5.5t5.5 -14.5zM849 213v-118q0 -18 -9.5 -40.5t-33.5 -39t-53 -16.5h-121q-18 0 -40.5 9.5t-39 33.5t-16.5 53v118q0 18 9.5 40.5t33.5 39t53 16.5h121
q18 0 40.5 -9.5t39 -33.5t16.5 -53zM740 132v44q0 24 -24 24h-46q-24 0 -24 -24v-44q0 -24 24 -24h46q24 0 24 24z" />
    <glyph glyph-name="ampersand" unicode="&#x26;" horiz-adv-x="1032" 
d="M997 485v-170q0 -24 -24 -24h-108q-24 0 -24 -24v-243q0 -24 -24 -24h-575q-78 0 -136 56q-56 58 -56 136v125q0 79 56 135q57 57 136 57h14q9 0 14.5 5.5t5.5 14.5v79q0 79 56 135q57 57 136 57h181q80 0 135 -57q57 -55 57 -135v-75q0 -24 24 -24h108q24 0 24 -24z
M623 533v25q0 25 -24 25h-74q-41 0 -41 -38q0 -36 41 -36h74q24 0 24 24zM623 242v25q0 24 -24 24h-282q-42 0 -42 -36t42 -36h282q11 0 17.5 6t6.5 17z" />
    <glyph glyph-name="quotesingle" unicode="'" horiz-adv-x="188" 
d="M153 816v-222q0 -24 -24 -24h-70q-24 0 -24 24v222q0 24 24 24h70q24 0 24 -24z" />
    <glyph glyph-name="parenleft" unicode="(" horiz-adv-x="425" 
d="M400 157v-171q0 -24 -24 -24h-134q-78 0 -136 56q-56 58 -56 136v492q0 80 56 136q57 57 136 56l134 -1q24 0 24 -24v-170q0 -24 -24 -24h-60q-20 0 -34 -14t-14 -34v-342q0 -20 14 -34t34 -14h58q12 0 19 -6.5t7 -17.5z" />
    <glyph glyph-name="parenright" unicode=")" horiz-adv-x="425" 
d="M375 646v-492q0 -79 -57 -136q-56 -56 -135 -56h-134q-24 0 -24 24v171q0 11 7 17.5t19 6.5h58q20 0 34 14t14 34v342q0 20 -14 34t-34 14h-60q-24 0 -24 24v170q0 24 24 24l134 1q79 1 135 -56q57 -55 57 -136z" />
    <glyph glyph-name="asterisk" unicode="*" horiz-adv-x="488" 
d="M453 435v-72q0 -24 -24 -24h-55q-15 0 -15 -15q0 -4 3 -9l26 -46q4 -7 4 -12q0 -13 -12 -21l-63 -36q-4 -3 -12 -3q-12 0 -20 12l-28 47q-2 3 -6 5.5t-7 2.5q-9 0 -14 -9l-27 -46q-7 -12 -20 -12q-7 0 -12 3l-63 36q-12 8 -12 21q0 5 4 12l27 47l2 8q0 9 -7 13l-10 2h-53
q-24 0 -24 24v72q0 24 24 24h55q15 0 15 15q0 5 -3 9l-26 46q-4 7 -4 12q0 14 12 21l63 36q5 3 12 3q13 0 20 -12l28 -47q2 -3 6 -5.5t7 -2.5t7.5 2.5t6.5 6.5l27 46q8 12 20 12q8 0 12 -3l63 -36q12 -7 12 -21q0 -5 -4 -12l-27 -47l-2 -8q0 -9 7 -13l10 -2h53q24 0 24 -24z
" />
    <glyph glyph-name="plus" unicode="+" horiz-adv-x="558" 
d="M508 476v-152q0 -24 -24 -24h-81q-24 0 -24 -24v-81q0 -24 -24 -24h-152q-24 0 -24 24v81q0 24 -24 24h-81q-24 0 -24 24v152q0 24 24 24h81q24 0 24 24v81q0 24 24 24h152q24 0 24 -24v-81q0 -24 24 -24h81q24 0 24 -24z" />
    <glyph glyph-name="comma" unicode="," horiz-adv-x="288" 
d="M253 176v-156q0 -22 -9.5 -44.5t-26.5 -39.5t-39 -26.5t-45 -9.5h-74q-24 0 -24 24v22q0 24 24 24h25q15 0 15 15t-15 15h-25q-24 0 -24 24v152q0 24 24 24h170q24 0 24 -24z" />
    <glyph glyph-name="hyphen" unicode="-" horiz-adv-x="488" 
d="M453 476v-152q0 -24 -24 -24h-370q-24 0 -24 24v152q0 24 24 24h370q24 0 24 -24z" />
    <glyph glyph-name="period" unicode="." horiz-adv-x="268" 
d="M243 176v-152q0 -24 -24 -24h-170q-24 0 -24 24v152q0 24 24 24h170q24 0 24 -24z" />
    <glyph glyph-name="slash" unicode="/" horiz-adv-x="479" 
d="M444 830l-1 -4l-200 -852q-6 -24 -24 -24h-160q-11 0 -17.5 5.5t-6.5 14.5v4l200 852q6 24 24 24h160q25 0 25 -20z" />
    <glyph glyph-name="zero" unicode="0" horiz-adv-x="926" 
d="M876 608v-416q0 -79 -57 -136q-56 -56 -135 -56h-442q-78 0 -136 56q-56 58 -56 136v416q0 79 56 135q57 57 136 57h442q80 0 135 -57q57 -55 57 -135zM657 266v268q0 20 -14 34t-34 14h-292q-20 0 -34 -14t-14 -34v-268q0 -20 14 -34t34 -14h292q20 0 34 14t14 34z" />
    <glyph glyph-name="one" unicode="1" horiz-adv-x="353" 
d="M303 776v-752q0 -24 -24 -24h-170q-24 0 -24 24v552q0 24 -24 24h-52q-24 0 -24 24v152q0 24 24 24h270q24 0 24 -24z" />
    <glyph glyph-name="two" unicode="2" horiz-adv-x="976" 
d="M926 195v-171q0 -24 -24 -24h-828q-24 0 -24 24v293q0 79 56 135q57 57 136 57h417q40 0 40 36q0 38 -42 38h-483q-24 0 -24 24v169q0 24 24 24h558q80 0 135 -57q57 -55 57 -135v-125q0 -79 -57 -136q-56 -56 -135 -56h-415q-42 0 -42 -37q0 -35 42 -35h585q24 0 24 -24
z" />
    <glyph glyph-name="three" unicode="3" horiz-adv-x="911" 
d="M861 608v-416q0 -79 -57 -136q-56 -56 -135 -56h-610q-24 0 -24 24v171q0 24 24 24h535q42 0 42 35q0 37 -42 37h-292q-24 0 -24 24v170q0 24 24 24h292q42 0 42 37t-42 37h-535q-24 0 -24 24v169q0 24 24 24h610q80 0 135 -57q57 -55 57 -135z" />
    <glyph glyph-name="four" unicode="4" horiz-adv-x="902" 
d="M852 776v-752q0 -24 -24 -24h-170q-24 0 -24 24v134q0 24 -24 24h-392q-79 0 -131 52t-52 131v411q0 24 24 24h170q24 0 24 -24v-328q0 -20 14 -34t34 -14h309q24 0 24 24v352q0 24 24 24h170q24 0 24 -24z" />
    <glyph glyph-name="five" unicode="5" horiz-adv-x="959" 
d="M924 317v-125q0 -79 -57 -136q-56 -56 -135 -56h-638q-24 0 -24 24v171q0 24 24 24h563q42 0 42 36t-40 36h-417q-78 0 -136 56q-56 58 -56 136v293q0 24 24 24h724q24 0 24 -24v-169q0 -24 -24 -24h-481q-42 0 -42 -37t42 -37h415q80 0 135 -57q57 -55 57 -135z" />
    <glyph glyph-name="six" unicode="6" horiz-adv-x="961" 
d="M926 317v-125q0 -79 -57 -136q-56 -56 -135 -56h-492q-78 0 -136 56q-56 58 -56 136v416q0 79 56 135q57 57 136 57h441q24 0 24 -24v-170q0 -24 -24 -24h-366q-20 0 -34 -14t-14 -34v-268q0 -20 14 -34t34 -14h342q47 0 47 37q0 36 -47 36h-294q-24 0 -24 24v170
q0 24 24 24h369q80 0 136 -56t56 -136z" />
    <glyph glyph-name="seven" unicode="7" horiz-adv-x="799" 
d="M784 776v-293q0 -78 -56 -136q-56 -56 -136 -56h-93q-90 0 -154 -64q-63 -63 -63 -153v-50q0 -11 -6 -17.5t-17 -6.5h-170q-24 0 -24 24v108q0 149 114 263q116 114 264 114h81q45 0 45 36q0 37 -47 37h-483q-24 0 -24 24v170q0 24 24 24h721q24 0 24 -24z" />
    <glyph glyph-name="eight" unicode="8" horiz-adv-x="976" 
d="M926 307v-115q0 -79 -57 -136q-56 -56 -135 -56h-492q-78 0 -136 56q-56 58 -56 136v115q0 18 11 38.5t31 40.5q6 6 6 14t-7 15q-19 19 -30 40t-11 38v115q0 79 56 135q57 57 136 57h492q80 0 135 -57q57 -55 57 -135v-115q0 -17 -11 -38t-30 -40q-7 -7 -7 -15t6 -14
q20 -20 31 -40.5t11 -38.5zM706 546q0 36 -47 36h-342q-47 0 -47 -36q0 -37 47 -37h342q47 0 47 37zM706 255q0 36 -47 36h-342q-47 0 -47 -36q0 -37 47 -37h342q47 0 47 37z" />
    <glyph glyph-name="nine" unicode="9" horiz-adv-x="951" 
d="M901 608v-416q0 -79 -57 -136q-56 -56 -135 -56h-441q-24 0 -24 24v170q0 24 24 24h366q20 0 34 14t14 34v268q0 20 -14 34t-34 14h-342q-47 0 -47 -37q0 -36 47 -36h294q24 0 24 -24v-170q0 -24 -24 -24h-369q-80 0 -136 56t-56 136v125q0 79 56 135q57 57 136 57h492
q80 0 135 -57q57 -55 57 -135z" />
    <glyph glyph-name="colon" unicode=":" horiz-adv-x="268" 
d="M243 576v-152q0 -24 -24 -24h-170q-24 0 -24 24v152q0 24 24 24h170q24 0 24 -24zM243 176v-152q0 -24 -24 -24h-170q-24 0 -24 24v152q0 24 24 24h170q24 0 24 -24z" />
    <glyph glyph-name="semicolon" unicode=";" horiz-adv-x="288" 
d="M253 576v-152q0 -24 -24 -24h-170q-24 0 -24 24v152q0 24 24 24h170q24 0 24 -24zM253 176v-156q0 -22 -9.5 -44.5t-26.5 -39.5t-39 -26.5t-45 -9.5h-74q-24 0 -24 24v22q0 24 24 24h25q15 0 15 15t-15 15h-25q-24 0 -24 24v152q0 24 24 24h170q24 0 24 -24z" />
    <glyph glyph-name="less" unicode="&#x3c;" horiz-adv-x="494" 
d="M459 132v-73q0 -24 -24 -24h-171q-11 0 -17 8t-6 23q0 94 -43 155q-49 70 -139 70q-24 0 -24 24v170q0 24 24 24q89 0 138 73q44 65 44 156q0 13 6 20t17 7h171q24 0 24 -24v-74q0 -109 -70 -209l-33 -42q-6 -7 -6 -17q0 -9 6 -17l34 -42q69 -97 69 -208z" />
    <glyph glyph-name="equal" unicode="=" horiz-adv-x="518" 
d="M468 571v-122q0 -24 -24 -24h-370q-24 0 -24 24v122q0 24 24 24h370q24 0 24 -24zM468 351v-122q0 -24 -24 -24h-370q-24 0 -24 24v122q0 24 24 24h370q24 0 24 -24z" />
    <glyph glyph-name="greater" unicode="&#x3e;" horiz-adv-x="494" 
d="M459 485v-170q0 -24 -24 -24q-90 0 -139 -70q-43 -61 -43 -155q0 -15 -6 -23t-17 -8h-171q-24 0 -24 24v73q0 111 69 208l34 42q6 8 6 17q0 10 -6 17l-33 42q-70 100 -70 209v74q0 24 24 24h171q11 0 17 -7t6 -20q0 -91 44 -156q49 -73 138 -73q24 0 24 -24z" />
    <glyph glyph-name="question" unicode="?" horiz-adv-x="851" 
d="M826 608v-125q0 -79 -57 -136q-56 -56 -135 -56h-170q-42 0 -42 -37q0 -24 -24 -24h-177q-24 0 -24 24v63q0 79 56 135q57 57 136 57h170q42 0 42 36q0 38 -42 38h-520q-24 0 -24 24v169q0 24 24 24h595q80 0 135 -57q57 -55 57 -135zM418 176v-152q0 -24 -24 -24h-170
q-24 0 -24 24v152q0 24 24 24h170q24 0 24 -24z" />
    <glyph glyph-name="at" unicode="@" horiz-adv-x="936" 
d="M713 517v-232q0 -23 -9 -45t-25 -38q-15 -16 -36.5 -25t-43.5 -9h-254q-48 0 -82 34q-15 16 -24 38t-9 45v66q0 22 11.5 49.5t40.5 47t63 19.5h180q15 0 15 -14v-94q0 -14 -15 -14h-135q-12 0 -19 -6t-7 -17q0 -10 7 -15.5t19 -5.5h164q13 0 21 8t8 21v143q0 13 -8 21
t-21 8h-199q-14 0 -14 15v102q0 15 14 15h244q22 0 43.5 -9t36.5 -25q34 -34 34 -83zM886 253v-61q0 -79 -57 -136q-56 -56 -135 -56h-452q-78 0 -136 56q-56 58 -56 136v416q0 79 56 135q57 57 136 57h452q80 0 135 -57q57 -55 57 -135v-287q0 -14 -15 -14h-109
q-15 0 -15 14v294q0 20 -14 34t-34 14h-462q-20 0 -34 -14t-14 -34v-428q0 -20 14 -34t34 -14h462q20 0 34 14t14 34v66q0 14 15 14h109q15 0 15 -14z" />
    <glyph glyph-name="A" unicode="A" horiz-adv-x="851" 
d="M801 776v-752q0 -24 -24 -24h-170q-24 0 -24 24v75q0 24 -24 24h-283q-24 0 -24 -24v-73q0 -12 -6.5 -19t-17.5 -7h-169q-24 0 -24 24v399q0 149 114 263t263 114h365q24 0 24 -24zM583 365v194q0 24 -24 24h-90q-88 0 -144 -63q-55 -62 -55 -155q0 -24 24 -24h265
q24 0 24 24z" />
    <glyph glyph-name="B" unicode="B" horiz-adv-x="960" 
d="M935 317v-125q0 -79 -57 -136q-56 -56 -135 -56h-669q-24 0 -24 24v461q0 24 25 24h385q41 0 41 36q0 38 -41 38h-386q-24 0 -24 24v169q0 24 24 24h443q80 0 135 -57q57 -55 57 -135v-79q0 -9 5.5 -14.5t14.5 -5.5h14q80 0 135 -57q57 -55 57 -135zM710 255q0 36 -42 36
h-376q-24 0 -24 -24v-25q0 -11 6.5 -17t17.5 -6h376q42 0 42 36z" />
    <glyph glyph-name="C" unicode="C" horiz-adv-x="827" 
d="M802 195v-171q0 -24 -24 -24h-366q-148 0 -263 113q-114 114 -114 263v232q0 79 56 135q57 57 136 57h551q24 0 24 -24v-169q0 -24 -24 -24h-477q-20 0 -34 -14t-14 -34v-100q0 -90 63 -153q65 -63 154 -63h308q24 0 24 -24z" />
    <glyph glyph-name="D" unicode="D" horiz-adv-x="960" 
d="M910 609v-417q0 -79 -57 -136q-56 -56 -135 -56h-644q-24 0 -24 24v461q0 24 24 24h170q24 0 24 -24v-218q0 -20 14 -34t34 -14h327q20 0 34 14t14 34v268q0 20 -14 34t-34 14h-569q-24 0 -24 24v169q0 24 24 24h644q80 0 136 -56t56 -135z" />
    <glyph glyph-name="E" unicode="E" horiz-adv-x="911" 
d="M876 195v-171q0 -24 -24 -24h-610q-78 0 -136 56q-56 58 -56 136v416q0 79 56 135q57 57 136 57h610q24 0 24 -24v-169q0 -24 -24 -24h-535q-42 0 -42 -37t42 -37h292q24 0 24 -24v-170q0 -24 -24 -24h-292q-42 0 -42 -37q0 -35 42 -35h535q24 0 24 -24z" />
    <glyph glyph-name="F" unicode="F" horiz-adv-x="816" 
d="M801 776v-169q0 -24 -24 -24h-308q-88 0 -144 -63q-55 -62 -55 -155q0 -24 24 -24h306q24 0 24 -24v-170q0 -24 -24 -24h-324q-24 0 -24 -24v-73q0 -12 -6.5 -19t-17.5 -7h-169q-24 0 -24 24v399q0 149 114 263t263 114h365q24 0 24 -24z" />
    <glyph glyph-name="G" unicode="G" horiz-adv-x="961" 
d="M911 485v-293q0 -79 -57 -136q-56 -56 -135 -56h-492q-78 0 -136 56q-56 58 -56 136v416q0 79 56 135q57 57 136 57h460q24 0 24 -24v-169q0 -24 -24 -24h-385q-20 0 -34 -14t-14 -34v-269q0 -20 14 -33.5t34 -13.5h342q42 0 42 36t-42 36h-294q-24 0 -24 24v170
q0 24 24 24h537q24 0 24 -24z" />
    <glyph glyph-name="H" unicode="H" horiz-adv-x="942" 
d="M917 435v-411q0 -24 -24 -24h-170q-24 0 -24 24v328q0 20 -14 34t-34 14h-359q-24 0 -24 -24v-352q0 -24 -24 -24h-170q-24 0 -24 24v752q0 24 24 24h170q24 0 24 -24v-134q0 -24 24 -24h442q79 0 131 -52t52 -131z" />
    <glyph glyph-name="I" unicode="I" horiz-adv-x="318" 
d="M268 776v-752q0 -24 -24 -24h-170q-24 0 -24 24v752q0 24 24 24h170q24 0 24 -24z" />
    <glyph glyph-name="J" unicode="J" horiz-adv-x="831" 
d="M781 776v-400q0 -149 -114 -263q-115 -113 -263 -113h-365q-24 0 -24 24v171q0 24 24 24h308q90 0 153 63q64 63 64 153v341q0 24 24 24h169q24 0 24 -24z" />
    <glyph glyph-name="K" unicode="K" horiz-adv-x="967" 
d="M917 326v-302q0 -24 -24 -24h-170q-24 0 -24 24v219q0 20 -14 34t-34 14h-359q-24 0 -24 -24v-243q0 -24 -24 -24h-170q-24 0 -24 24v752q0 24 24 24h170q24 0 24 -24v-243q0 -24 24 -24h139q24 0 24 24v84q0 79 52 131t131 52h230q24 0 24 -24v-169q0 -24 -24 -24h-164
q-31 0 -31 -39q0 -35 30 -35h31q79 0 131 -52t52 -131z" />
    <glyph glyph-name="L" unicode="L" horiz-adv-x="816" 
d="M801 195v-171q0 -24 -24 -24h-365q-148 0 -263 113q-114 114 -114 263v400q0 24 24 24h169q24 0 24 -24v-341q0 -90 63 -153q65 -63 154 -63h308q24 0 24 -24z" />
    <glyph glyph-name="M" unicode="M" horiz-adv-x="1338" 
d="M1288 406v-382q0 -24 -24 -24h-170q-24 0 -24 24l1 324q0 95 -52 162q-55 73 -142 73h-75q-24 0 -24 -24v-535q0 -24 -24 -24h-170q-24 0 -24 24v342q0 100 -52 158.5t-138 58.5h-78q-24 0 -24 -24v-535q0 -24 -24 -24h-170q-24 0 -24 24v752q0 24 24 24h363q38 0 83 -16
q49 -17 76 -36q2 -2 5.5 -2t5.5 2q6 5 6 9v19q0 24 24 24h275q72 0 138.5 -31t122.5 -91q115 -121 115 -272z" />
    <glyph glyph-name="N" unicode="N" horiz-adv-x="919" 
d="M883 423l1 -399q0 -24 -24 -24h-170q-24 0 -24 24v341q0 90 -64 154q-63 64 -153 64h-157q-24 0 -24 -24v-535q0 -24 -24 -24h-170q-24 0 -24 24v752q0 24 24 24h433q73 0 140 -29t122 -85q114 -114 114 -263z" />
    <glyph glyph-name="O" unicode="O" horiz-adv-x="976" 
d="M926 608v-416q0 -79 -57 -136q-56 -56 -135 -56h-492q-78 0 -136 56q-56 58 -56 136v416q0 79 56 135q57 57 136 57h492q80 0 135 -57q57 -55 57 -135zM707 267v268q0 20 -14 34t-34 14h-342q-20 0 -34 -14t-14 -34v-268q0 -20 14 -34t34 -14h342q20 0 34 14t14 34z" />
    <glyph glyph-name="P" unicode="P" horiz-adv-x="995" 
d="M960 608v-235q0 -79 -56 -135t-135 -56h-404q-24 0 -24 24v170q0 24 24 24h329q20 0 34 14t14 34v87q0 20 -14 34t-34 14h-378q-20 0 -33.5 -14t-13.5 -34v-511q0 -24 -24 -24h-171q-24 0 -24 24v584q0 79 56 135q57 57 136 57h527q79 0 135 -56t56 -136z" />
    <glyph glyph-name="Q" unicode="Q" horiz-adv-x="995" 
d="M945 608v-584q0 -24 -24 -24h-170q-24 0 -24 24v511q0 20 -14 34t-34 14h-377q-20 0 -34 -14t-14 -34v-87q0 -20 14 -34t34 -14h328q24 0 24 -24v-170q0 -24 -24 -24h-403q-80 0 -136 56t-56 135v235q0 79 56 135q57 57 136 57h527q79 0 135 -56t56 -136z" />
    <glyph glyph-name="R" unicode="R" horiz-adv-x="942" 
d="M917 317v-293q0 -24 -24 -24h-170q-24 0 -24 24v219q0 20 -14 34t-34 14h-359q-24 0 -24 -24v-243q0 -24 -24 -24h-170q-24 0 -24 24v461q0 24 25 24h367q41 0 41 36q0 38 -41 38h-368q-24 0 -24 24v169q0 24 24 24h425q80 0 135 -57q57 -55 57 -135v-79q0 -9 5.5 -14.5
t14.5 -5.5h14q80 0 135 -57q57 -55 57 -135z" />
    <glyph glyph-name="S" unicode="S" horiz-adv-x="926" 
d="M911 317v-125q0 -79 -57 -136q-56 -56 -135 -56h-660q-24 0 -24 24v171q0 24 24 24h585q42 0 42 35q0 37 -42 37h-417q-78 0 -136 56q-56 58 -56 136v125q0 79 56 135q57 57 136 57h441q24 0 24 -24v-170q0 -24 -24 -24h-366q-42 0 -42 -37q0 -36 42 -36h417
q80 0 135 -57q57 -55 57 -135z" />
    <glyph glyph-name="T" unicode="T" horiz-adv-x="816" 
d="M801 195v-171q0 -24 -24 -24h-365q-148 0 -263 113q-114 114 -114 263v400q0 24 24 24h169q11 0 17.5 -7t6.5 -19v-73q0 -24 24 -24h324q24 0 24 -24v-170q0 -24 -24 -24h-306q-24 0 -24 -24q0 -93 55 -154q56 -62 144 -62h308q24 0 24 -24z" />
    <glyph glyph-name="U" unicode="U" horiz-adv-x="976" 
d="M926 776v-584q0 -79 -57 -136q-56 -56 -135 -56h-492q-78 0 -136 56q-56 56 -56 136l1 584q0 24 24 24h170q24 0 24 -24v-509q0 -20 14 -34t34 -14h342q20 0 34 14t14 34v507q0 12 6.5 19t17.5 7h171q24 0 24 -24z" />
    <glyph glyph-name="V" unicode="V" horiz-adv-x="934" 
d="M883 776v-399q0 -149 -114 -263q-55 -56 -122 -85t-140 -29h-433q-24 0 -24 24v752q0 24 24 24h170q24 0 24 -24v-533q0 -24 24 -24h157q90 0 153 64q64 64 64 154v339q0 24 24 24h169q24 0 24 -24z" />
    <glyph glyph-name="W" unicode="W" horiz-adv-x="1323" 
d="M1288 776v-382q0 -151 -114 -271q-57 -61 -123.5 -92t-138.5 -31h-275q-24 0 -24 24v19q0 5 -6 9q-2 2 -5.5 2t-5.5 -2q-27 -19 -76 -36q-45 -16 -83 -16h-363q-24 0 -24 24v752q0 24 24 24h170q24 0 24 -24v-533q0 -24 24 -24h78q87 0 138.5 58t51.5 158v341q0 24 24 24
h170q24 0 24 -24v-533q0 -24 24 -24h75q87 0 142 73q52 67 52 162v322q0 24 24 24h169q24 0 24 -24z" />
    <glyph glyph-name="X" unicode="X" horiz-adv-x="868" 
d="M833 132v-108q0 -11 -6 -17.5t-17 -6.5h-170q-11 0 -17.5 7t-6.5 19v49q0 86 -49 150q-53 71 -133 71t-133 -71q-49 -64 -49 -150v-49q0 -12 -6.5 -19t-17.5 -7h-169q-24 0 -24 24v108q0 69 26 132.5t76 117.5q8 8 8 17t-8 17q-102 111 -102 251v109q0 24 24 24h169
q11 0 17.5 -7t6.5 -19v-54q0 -84 50 -148q53 -68 132 -68t132 68q50 64 50 148v54q0 12 6.5 19t17.5 7h170q11 0 17 -6.5t6 -17.5v-109q0 -140 -102 -251q-8 -8 -8 -17t8 -17q50 -54 76 -117.5t26 -132.5z" />
    <glyph glyph-name="Y" unicode="Y" horiz-adv-x="854" 
d="M829 776v-171q0 -134 -73 -237q-75 -106 -197 -132q-23 -5 -23 -22v-190q0 -24 -24 -24h-170q-24 0 -24 24v188q0 18 -22 24q-122 33 -197 135q-74 103 -74 234v171q0 24 24 24h169q24 0 24 -24v-112q0 -95 48 -154q50 -63 137 -63q88 0 137 63q48 59 48 154v112
q0 24 24 24h169q24 0 24 -24z" />
    <glyph glyph-name="Z" unicode="Z" horiz-adv-x="976" 
d="M926 776v-293q0 -79 -57 -136q-56 -56 -135 -56h-417q-42 0 -42 -37q0 -35 42 -35h535q24 0 24 -24v-171q0 -24 -24 -24h-778q-24 0 -24 24v293q0 79 56 135q57 57 136 57h417q42 0 42 36q0 38 -42 38h-517q-24 0 -24 24v169q0 24 24 24h760q24 0 24 -24z" />
    <glyph glyph-name="bracketleft" unicode="[" horiz-adv-x="414" 
d="M379 141v-152q0 -24 -24 -24h-281q-24 0 -24 24v822q0 24 24 24h281q24 0 24 -24v-152q0 -24 -24 -24h-81q-24 0 -24 -24v-422q0 -24 24 -24h81q24 0 24 -24z" />
    <glyph glyph-name="backslash" unicode="\" horiz-adv-x="479" 
d="M444 -30q0 -9 -6.5 -14.5t-17.5 -5.5h-160q-18 0 -24 24l-200 852l-1 4q0 20 25 20h160q18 0 24 -24l200 -852v-4z" />
    <glyph glyph-name="bracketright" unicode="]" horiz-adv-x="414" 
d="M364 811v-822q0 -24 -24 -24h-281q-24 0 -24 24v152q0 24 24 24h81q24 0 24 24v422q0 24 -24 24h-81q-24 0 -24 24v152q0 24 24 24h281q24 0 24 -24z" />
    <glyph glyph-name="asciicircum" unicode="^" horiz-adv-x="978" 
d="M644 906v-32q0 -9 -8 -17.5t-16 -6.5l-113 29q-6 2 -17 2t-17 -2l-115 -29q-8 -2 -16 6.5t-8 17.5v32q0 8 6.5 14t17.5 10l110 38q20 8 41 0l111 -38q11 -4 17.5 -10t6.5 -14z" />
    <glyph glyph-name="underscore" unicode="_" horiz-adv-x="768" 
d="M768 -24v-62q0 -24 -24 -24h-720q-24 0 -24 24v62q0 24 24 24h720q24 0 24 -24z" />
    <glyph glyph-name="grave" unicode="`" horiz-adv-x="968" 
d="M623 906v-32q0 -24 -24 -24h-230q-24 0 -24 24v72q0 9 8 17.5t16 6.5l230 -40q11 -2 17.5 -8.5t6.5 -15.5z" />
    <glyph glyph-name="a" unicode="a" horiz-adv-x="961" 
d="M911 608v-416q0 -79 -57 -136q-56 -56 -135 -56h-492q-78 0 -136 56q-56 58 -56 136v125q0 79 56 135q57 57 136 57h369q24 0 24 -24v-170q0 -24 -24 -24h-294q-42 0 -42 -37q0 -35 42 -35h342q20 0 34 13.5t14 33.5v269q0 20 -14 34t-34 14h-366q-24 0 -24 24v169
q0 24 24 24h441q80 0 135 -57q57 -55 57 -135z" />
    <glyph glyph-name="b" unicode="b" horiz-adv-x="985" 
d="M960 427v-235q0 -80 -56 -136t-135 -56h-527q-78 0 -136 56q-56 58 -56 136v584q0 24 24 24h171q24 0 24 -24v-509q0 -20 13.5 -34t33.5 -14h378q20 0 34 14t14 34v85q0 20 -14 34t-34 14h-329q-24 0 -24 24v170q0 24 24 24h404q79 0 135 -56t56 -135z" />
    <glyph glyph-name="c" unicode="c" horiz-adv-x="842" 
d="M817 195v-171q0 -24 -24 -24h-366q-148 0 -263 113q-114 114 -114 263v232q0 79 56 135q57 57 136 57h551q24 0 24 -24v-169q0 -24 -24 -24h-477q-20 0 -34 -14t-14 -34v-100q0 -90 63 -153q65 -63 154 -63h308q24 0 24 -24z" />
    <glyph glyph-name="d" unicode="d" horiz-adv-x="985" 
d="M935 776v-584q0 -80 -56 -136t-135 -56h-527q-78 0 -136 56q-56 58 -56 136v235q0 79 56 135t136 56h403q24 0 24 -24v-170q0 -24 -24 -24h-328q-20 0 -34 -14t-14 -34v-85q0 -20 14 -34t34 -14h377q20 0 34 14t14 34v509q0 24 24 24h170q24 0 24 -24z" />
    <glyph glyph-name="e" unicode="e" horiz-adv-x="961" 
d="M926 608v-125q0 -78 -56 -136q-56 -56 -136 -56h-369q-24 0 -24 24v170q0 24 24 24h294q41 0 41 36q0 38 -41 38h-343q-20 0 -33.5 -14.5t-13.5 -34.5v-267q0 -20 13.5 -34t33.5 -14h367q24 0 24 -24v-171q0 -24 -24 -24h-441q-78 0 -136 56q-56 58 -56 136v416
q0 79 56 135q57 57 136 57h492q80 0 135 -57q57 -55 57 -135z" />
    <glyph glyph-name="f" unicode="f" horiz-adv-x="816" 
d="M801 776v-169q0 -24 -24 -24h-308q-88 0 -144 -63q-55 -62 -55 -155q0 -24 24 -24h306q24 0 24 -24v-170q0 -24 -24 -24h-324q-24 0 -24 -24v-73q0 -12 -6.5 -19t-17.5 -7h-169q-24 0 -24 24v399q0 149 114 263t263 114h365q24 0 24 -24z" />
    <glyph glyph-name="g" unicode="g" horiz-adv-x="961" 
d="M911 608v-416q0 -79 -57 -136q-56 -56 -135 -56h-441q-24 0 -24 24v171q0 24 24 24h366q20 0 34 14t14 34v267q0 20 -14 34.5t-34 14.5h-342q-42 0 -42 -38q0 -36 42 -36h294q24 0 24 -24v-170q0 -24 -24 -24h-369q-80 0 -136 56t-56 136v125q0 79 56 135q57 57 136 57
h492q80 0 135 -57q57 -55 57 -135z" />
    <glyph glyph-name="h" unicode="h" horiz-adv-x="942" 
d="M917 435v-411q0 -24 -24 -24h-170q-24 0 -24 24v328q0 20 -14 34t-34 14h-359q-24 0 -24 -24v-352q0 -24 -24 -24h-170q-24 0 -24 24v752q0 24 24 24h170q24 0 24 -24v-134q0 -24 24 -24h442q79 0 131 -52t52 -131z" />
    <glyph glyph-name="i" unicode="i" horiz-adv-x="318" 
d="M268 776v-752q0 -24 -24 -24h-170q-24 0 -24 24v752q0 24 24 24h170q24 0 24 -24z" />
    <glyph glyph-name="j" unicode="j" horiz-adv-x="831" 
d="M781 776v-400q0 -149 -114 -263q-115 -113 -263 -113h-365q-24 0 -24 24v171q0 24 24 24h308q90 0 153 63q64 63 64 153v341q0 24 24 24h169q24 0 24 -24z" />
    <glyph glyph-name="k" unicode="k" horiz-adv-x="967" 
d="M917 326v-302q0 -24 -24 -24h-170q-24 0 -24 24v219q0 20 -14 34t-34 14h-359q-24 0 -24 -24v-243q0 -24 -24 -24h-170q-24 0 -24 24v752q0 24 24 24h170q24 0 24 -24v-243q0 -24 24 -24h139q24 0 24 24v84q0 79 52 131t131 52h230q24 0 24 -24v-169q0 -24 -24 -24h-164
q-31 0 -31 -39q0 -35 30 -35h31q79 0 131 -52t52 -131z" />
    <glyph glyph-name="l" unicode="l" horiz-adv-x="831" 
d="M816 195v-171q0 -24 -24 -24h-365q-148 0 -263 113q-114 114 -114 263v400q0 24 24 24h169q24 0 24 -24v-341q0 -90 63 -153q65 -63 154 -63h308q24 0 24 -24z" />
    <glyph glyph-name="m" unicode="m" horiz-adv-x="1338" 
d="M1288 406v-382q0 -24 -24 -24h-170q-24 0 -24 24l1 324q0 95 -52 162q-55 73 -142 73h-75q-24 0 -24 -24v-535q0 -24 -24 -24h-170q-24 0 -24 24v342q0 100 -52 158.5t-138 58.5h-78q-24 0 -24 -24v-535q0 -24 -24 -24h-170q-24 0 -24 24v752q0 24 24 24h363q38 0 83 -16
q49 -17 76 -36q2 -2 5.5 -2t5.5 2q6 5 6 9v19q0 24 24 24h275q72 0 138.5 -31t122.5 -91q115 -121 115 -272z" />
    <glyph glyph-name="n" unicode="n" horiz-adv-x="919" 
d="M883 423l1 -399q0 -24 -24 -24h-170q-24 0 -24 24v341q0 90 -64 154q-63 64 -153 64h-157q-24 0 -24 -24v-535q0 -24 -24 -24h-170q-24 0 -24 24v752q0 24 24 24h433q73 0 140 -29t122 -85q114 -114 114 -263z" />
    <glyph glyph-name="o" unicode="o" horiz-adv-x="976" 
d="M926 608v-416q0 -79 -57 -136q-56 -56 -135 -56h-492q-78 0 -136 56q-56 58 -56 136v416q0 79 56 135q57 57 136 57h492q80 0 135 -57q57 -55 57 -135zM707 267v268q0 20 -14 34t-34 14h-342q-20 0 -34 -14t-14 -34v-268q0 -20 14 -34t34 -14h342q20 0 34 14t14 34z" />
    <glyph glyph-name="p" unicode="p" horiz-adv-x="995" 
d="M960 608v-235q0 -79 -56 -135t-135 -56h-404q-24 0 -24 24v170q0 24 24 24h329q20 0 34 14t14 34v87q0 20 -14 34t-34 14h-378q-20 0 -33.5 -14t-13.5 -34v-511q0 -24 -24 -24h-171q-24 0 -24 24v584q0 79 56 135q57 57 136 57h527q79 0 135 -56t56 -136z" />
    <glyph glyph-name="q" unicode="q" horiz-adv-x="995" 
d="M945 608v-584q0 -24 -24 -24h-170q-24 0 -24 24v511q0 20 -14 34t-34 14h-377q-20 0 -34 -14t-14 -34v-87q0 -20 14 -34t34 -14h328q24 0 24 -24v-170q0 -24 -24 -24h-403q-80 0 -136 56t-56 135v235q0 79 56 135q57 57 136 57h527q79 0 135 -56t56 -136z" />
    <glyph glyph-name="r" unicode="r" horiz-adv-x="831" 
d="M816 776v-169q0 -24 -24 -24h-308q-90 0 -154 -64q-63 -64 -63 -154v-341q0 -24 -24 -24h-169q-24 0 -24 24v399q0 149 114 263t263 114h365q24 0 24 -24z" />
    <glyph glyph-name="s" unicode="s" horiz-adv-x="926" 
d="M911 317v-125q0 -79 -57 -136q-56 -56 -135 -56h-660q-24 0 -24 24v171q0 24 24 24h585q42 0 42 35q0 37 -42 37h-417q-78 0 -136 56q-56 58 -56 136v125q0 79 56 135q57 57 136 57h441q24 0 24 -24v-170q0 -24 -24 -24h-366q-42 0 -42 -37q0 -36 42 -36h417
q80 0 135 -57q57 -55 57 -135z" />
    <glyph glyph-name="t" unicode="t" horiz-adv-x="816" 
d="M801 195v-171q0 -24 -24 -24h-365q-148 0 -263 113q-114 114 -114 263v400q0 24 24 24h169q11 0 17.5 -7t6.5 -19v-73q0 -24 24 -24h324q24 0 24 -24v-170q0 -24 -24 -24h-306q-24 0 -24 -24q0 -93 55 -154q56 -62 144 -62h308q24 0 24 -24z" />
    <glyph glyph-name="u" unicode="u" horiz-adv-x="976" 
d="M926 776v-584q0 -79 -57 -136q-56 -56 -135 -56h-492q-78 0 -136 56q-56 56 -56 136l1 584q0 24 24 24h170q24 0 24 -24v-509q0 -20 14 -34t34 -14h342q20 0 34 14t14 34v507q0 12 6.5 19t17.5 7h171q24 0 24 -24z" />
    <glyph glyph-name="v" unicode="v" horiz-adv-x="934" 
d="M883 776v-399q0 -149 -114 -263q-55 -56 -122 -85t-140 -29h-433q-24 0 -24 24v752q0 24 24 24h170q24 0 24 -24v-533q0 -24 24 -24h157q90 0 153 64q64 64 64 154v339q0 24 24 24h169q24 0 24 -24z" />
    <glyph glyph-name="w" unicode="w" horiz-adv-x="1323" 
d="M1288 776v-382q0 -151 -114 -271q-57 -61 -123.5 -92t-138.5 -31h-275q-24 0 -24 24v19q0 5 -6 9q-2 2 -5.5 2t-5.5 -2q-27 -19 -76 -36q-45 -16 -83 -16h-363q-24 0 -24 24v752q0 24 24 24h170q24 0 24 -24v-533q0 -24 24 -24h78q87 0 138.5 58t51.5 158v341q0 24 24 24
h170q24 0 24 -24v-533q0 -24 24 -24h75q87 0 142 73q52 67 52 162v322q0 24 24 24h169q24 0 24 -24z" />
    <glyph glyph-name="x" unicode="x" horiz-adv-x="868" 
d="M833 132v-108q0 -11 -6 -17.5t-17 -6.5h-170q-11 0 -17.5 7t-6.5 19v49q0 86 -49 150q-53 71 -133 71t-133 -71q-49 -64 -49 -150v-49q0 -12 -6.5 -19t-17.5 -7h-169q-24 0 -24 24v108q0 69 26 132.5t76 117.5q8 8 8 17t-8 17q-102 111 -102 251v109q0 24 24 24h169
q11 0 17.5 -7t6.5 -19v-54q0 -84 50 -148q53 -68 132 -68t132 68q50 64 50 148v54q0 12 6.5 19t17.5 7h170q11 0 17 -6.5t6 -17.5v-109q0 -140 -102 -251q-8 -8 -8 -17t8 -17q50 -54 76 -117.5t26 -132.5z" />
    <glyph glyph-name="y" unicode="y" horiz-adv-x="854" 
d="M829 776v-171q0 -134 -73 -237q-75 -106 -197 -132q-23 -5 -23 -22v-190q0 -24 -24 -24h-170q-24 0 -24 24v188q0 18 -22 24q-122 33 -197 135q-74 103 -74 234v171q0 24 24 24h169q24 0 24 -24v-112q0 -95 48 -154q50 -63 137 -63q88 0 137 63q48 59 48 154v112
q0 24 24 24h169q24 0 24 -24z" />
    <glyph glyph-name="z" unicode="z" horiz-adv-x="976" 
d="M926 776v-293q0 -79 -57 -136q-56 -56 -135 -56h-417q-42 0 -42 -37q0 -35 42 -35h535q24 0 24 -24v-171q0 -24 -24 -24h-778q-24 0 -24 24v293q0 79 56 135q57 57 136 57h417q42 0 42 36q0 38 -42 38h-517q-24 0 -24 24v169q0 24 24 24h760q24 0 24 -24z" />
    <glyph glyph-name="braceleft" unicode="{" horiz-adv-x="479" 
d="M454 157v-171q0 -24 -24 -24h-134q-78 0 -136 56q-56 58 -56 136v112q0 25 -24 25h-41q-24 0 -24 24v170q0 24 24 24h41q24 0 24 25v112q0 80 56 136q57 57 136 56l134 -1q24 0 24 -24v-170q0 -24 -24 -24h-60q-20 0 -34 -14t-14 -34v-342q0 -20 14 -34t34 -14h58
q12 0 19 -6.5t7 -17.5z" />
    <glyph glyph-name="bar" unicode="|" horiz-adv-x="218" 
d="M168 976v-1152q0 -24 -24 -24h-70q-24 0 -24 24v1152q0 24 24 24h70q24 0 24 -24z" />
    <glyph glyph-name="braceright" unicode="}" horiz-adv-x="479" 
d="M454 485v-170q0 -24 -24 -24h-41q-24 0 -24 -25v-112q0 -79 -57 -136q-56 -56 -135 -56h-134q-24 0 -24 24v171q0 11 7 17.5t19 6.5h58q20 0 34 14t14 34v342q0 20 -14 34t-34 14h-60q-24 0 -24 24v170q0 24 24 24l134 1q79 1 135 -56q57 -55 57 -136v-112q0 -25 24 -25
h41q24 0 24 -24z" />
    <glyph glyph-name="asciitilde" unicode="~" horiz-adv-x="978" 
d="M662 936v-42q0 -10 -24 -24l-70 -38q-18 -11 -41 0l-81 36q-18 8 -34 1l-75 -29q-11 -4 -17.5 -0.5t-6.5 14.5v42q0 11 24 24l70 38q19 10 41 0l81 -37q16 -7 34 0l75 29q11 4 17.5 0.5t6.5 -14.5z" />
    <glyph glyph-name="exclamdown" unicode="&#xa1;" horiz-adv-x="318" 
d="M50 24v452q0 24 24 24h170q24 0 24 -24v-452q0 -24 -24 -24h-170q-24 0 -24 24zM50 624v152q0 24 24 24h170q24 0 24 -24v-152q0 -24 -24 -24h-170q-24 0 -24 24z" />
    <glyph glyph-name="cent" unicode="&#xa2;" 
d="M702 319l12 -224l-361 3l-299 -13l-4 228zM378 520l4 -62l-17 -2l-42 -125l-86 2l-126 -2l-36 116l-22 6l-3 62l201 1l1 -55l-13 -4l10 -32l19 32l-7 3v56zM702 471l-87 2l-25 -81h-19l3 69l19 3l3 56l-208 -1l3 -61l14 -2l-1 -72l-15 -1l-1 -53l312 5zM215 133l180 -4
l-3 52h-15l-3 62l17 2l1 44l-94 -6l1 -44l12 -1l1 -33l-45 77l-187 2l1 -47l16 -5l3 -60l-12 -3v-54h27l72 6l-5 46l-18 7l-5 44zM537 132l146 -8l-3 136l-59 -4l-14 -72l-26 -3l1 62l15 3l-2 51l-193 -7l1 -44l20 -1l-2 -64l-17 -2v-49z" />
    <glyph glyph-name="sterling" unicode="&#xa3;" horiz-adv-x="1009" 
d="M959 195v-171q0 -24 -24 -24h-752q-24 0 -24 24v219q0 25 -24 25h-61q-24 0 -24 24v170q0 24 24 24h73q17 0 24 25q35 124 137 205q104 84 228 84h299q24 0 24 -24v-169q0 -24 -24 -24h-239q-51 0 -102 -21q-55 -22 -55 -51q0 -25 22 -25h122q24 0 24 -24v-170
q0 -24 -24 -24h-183q-22 0 -22 -25q0 -24 24 -24h533q24 0 24 -24z" />
    <glyph glyph-name="yen" unicode="&#xa5;" horiz-adv-x="904" 
d="M854 776v-71q0 -134 -73 -237q-75 -106 -197 -132q-23 -5 -23 -26q0 -22 22 -22h133q24 0 24 -24v-170q0 -24 -24 -24h-133q-22 0 -22 -25v-21q0 -24 -24 -24h-170q-24 0 -24 24v21q0 25 -22 25h-133q-24 0 -24 24v170q0 24 24 24h133q22 0 22 22q0 21 -23 26
q-122 26 -197 132q-73 103 -73 237v71q0 24 24 24h169q24 0 24 -24v-12q0 -95 48 -154q50 -63 137 -63q88 0 137 63q48 59 48 154v12q0 24 24 24h169q24 0 24 -24z" />
    <glyph glyph-name="brokenbar" unicode="&#xa6;" 
d="M702 319l12 -224l-361 3l-299 -13l-4 228zM378 520l4 -62l-17 -2l-42 -125l-86 2l-126 -2l-36 116l-22 6l-3 62l201 1l1 -55l-13 -4l10 -32l19 32l-7 3v56zM702 471l-87 2l-25 -81h-19l3 69l19 3l3 56l-208 -1l3 -61l14 -2l-1 -72l-15 -1l-1 -53l312 5zM215 133l180 -4
l-3 52h-15l-3 62l17 2l1 44l-94 -6l1 -44l12 -1l1 -33l-45 77l-187 2l1 -47l16 -5l3 -60l-12 -3v-54h27l72 6l-5 46l-18 7l-5 44zM537 132l146 -8l-3 136l-59 -4l-14 -72l-26 -3l1 62l15 3l-2 51l-193 -7l1 -44l20 -1l-2 -64l-17 -2v-49z" />
    <glyph glyph-name="section" unicode="&#xa7;" horiz-adv-x="676" 
d="M626 27v-125q0 -79 -57 -135q-55 -57 -135 -57h-260q-24 0 -24 24v171q0 24 24 24h185q42 0 42 35q0 37 -42 37h-117q-78 0 -136 56q-56 58 -56 136v125q0 80 56 136q57 57 136 57h117q42 0 42 35q0 37 -42 37h-117q-78 0 -136 56q-56 58 -56 136v125q0 79 56 135
q57 57 136 57h260q24 0 24 -24v-170q0 -24 -24 -24h-185q-42 0 -42 -37q0 -36 42 -36h117q80 0 135 -57q57 -55 57 -135v-125q0 -79 -57 -136q-56 -56 -135 -56h-117q-42 0 -42 -37q0 -36 42 -36h117q80 0 135 -57q57 -55 57 -135z" />
    <glyph glyph-name="dieresis" unicode="&#xa8;" horiz-adv-x="976" 
d="M657 936v-62q0 -24 -24 -24h-90q-24 0 -24 24v62q0 24 24 24h90q24 0 24 -24zM457 936v-62q0 -24 -24 -24h-90q-24 0 -24 24v62q0 24 24 24h90q24 0 24 -24z" />
    <glyph glyph-name="copyright" unicode="&#xa9;" horiz-adv-x="936" 
d="M886 608v-416q0 -79 -57 -136q-56 -56 -135 -56h-452q-78 0 -136 56q-56 58 -56 136v416q0 79 56 135q57 57 136 57h452q80 0 135 -57q57 -55 57 -135zM747 187v428q0 20 -14 34t-34 14h-462q-20 0 -34 -14t-14 -34v-428q0 -20 14 -34t34 -14h462q20 0 34 14t14 34z
M689 286v-103q0 -14 -15 -14h-219q-89 0 -159 68q-68 68 -68 158v119q0 22 9 43.5t25 37.5q34 34 82 34h330q15 0 15 -14v-102q0 -14 -15 -14h-286q-13 0 -21 -8t-8 -21v-40q0 -25 10 -49.5t28 -42.5t42.5 -28t49.5 -10h185q15 0 15 -14z" />
    <glyph glyph-name="ordfeminine" unicode="&#xaa;" 
d="M702 319l12 -224l-361 3l-299 -13l-4 228zM378 520l4 -62l-17 -2l-42 -125l-86 2l-126 -2l-36 116l-22 6l-3 62l201 1l1 -55l-13 -4l10 -32l19 32l-7 3v56zM702 471l-87 2l-25 -81h-19l3 69l19 3l3 56l-208 -1l3 -61l14 -2l-1 -72l-15 -1l-1 -53l312 5zM215 133l180 -4
l-3 52h-15l-3 62l17 2l1 44l-94 -6l1 -44l12 -1l1 -33l-45 77l-187 2l1 -47l16 -5l3 -60l-12 -3v-54h27l72 6l-5 46l-18 7l-5 44zM537 132l146 -8l-3 136l-59 -4l-14 -72l-26 -3l1 62l15 3l-2 51l-193 -7l1 -44l20 -1l-2 -64l-17 -2v-49z" />
    <glyph glyph-name="guillemotleft" unicode="&#xab;" 
d="M702 319l12 -224l-361 3l-299 -13l-4 228zM378 520l4 -62l-17 -2l-42 -125l-86 2l-126 -2l-36 116l-22 6l-3 62l201 1l1 -55l-13 -4l10 -32l19 32l-7 3v56zM702 471l-87 2l-25 -81h-19l3 69l19 3l3 56l-208 -1l3 -61l14 -2l-1 -72l-15 -1l-1 -53l312 5zM215 133l180 -4
l-3 52h-15l-3 62l17 2l1 44l-94 -6l1 -44l12 -1l1 -33l-45 77l-187 2l1 -47l16 -5l3 -60l-12 -3v-54h27l72 6l-5 46l-18 7l-5 44zM537 132l146 -8l-3 136l-59 -4l-14 -72l-26 -3l1 62l15 3l-2 51l-193 -7l1 -44l20 -1l-2 -64l-17 -2v-49z" />
    <glyph glyph-name="logicalnot" unicode="&#xac;" 
d="M702 319l12 -224l-361 3l-299 -13l-4 228zM378 520l4 -62l-17 -2l-42 -125l-86 2l-126 -2l-36 116l-22 6l-3 62l201 1l1 -55l-13 -4l10 -32l19 32l-7 3v56zM702 471l-87 2l-25 -81h-19l3 69l19 3l3 56l-208 -1l3 -61l14 -2l-1 -72l-15 -1l-1 -53l312 5zM215 133l180 -4
l-3 52h-15l-3 62l17 2l1 44l-94 -6l1 -44l12 -1l1 -33l-45 77l-187 2l1 -47l16 -5l3 -60l-12 -3v-54h27l72 6l-5 46l-18 7l-5 44zM537 132l146 -8l-3 136l-59 -4l-14 -72l-26 -3l1 62l15 3l-2 51l-193 -7l1 -44l20 -1l-2 -64l-17 -2v-49z" />
    <glyph glyph-name="registered" unicode="&#xae;" horiz-adv-x="936" 
d="M886 608v-416q0 -79 -57 -136q-56 -56 -135 -56h-452q-78 0 -136 56q-56 58 -56 136v416q0 79 56 135q57 57 136 57h452q80 0 135 -57q57 -55 57 -135zM747 187v428q0 20 -14 34t-34 14h-462q-20 0 -34 -14t-14 -34v-428q0 -20 14 -34t34 -14h462q20 0 34 14t14 34z
M715 514v-131q0 -48 -33.5 -81.5t-81.5 -33.5h-182q-14 0 -14 15v102q0 14 14 14h137q13 0 21 8t8 21v42q0 13 -8 21t-21 8h-166q-13 0 -21 -8t-8 -21v-287q0 -14 -14 -14h-103q-14 0 -14 14v331q0 22 9 43.5t25 37.5t37.5 25t43.5 9h256q48 0 81.5 -33.5t33.5 -81.5z" />
    <glyph glyph-name="degree" unicode="&#xb0;" horiz-adv-x="383" 
d="M348 704v-118q0 -18 -9.5 -40.5t-33.5 -39t-53 -16.5h-121q-18 0 -40.5 9.5t-39 33.5t-16.5 53v118q0 18 9.5 40.5t33.5 39t53 16.5h121q18 0 40.5 -9.5t39 -33.5t16.5 -53zM239 623v44q0 24 -24 24h-46q-24 0 -24 -24v-44q0 -24 24 -24h46q24 0 24 24z" />
    <glyph glyph-name="plusminus" unicode="&#xb1;" 
d="M702 319l12 -224l-361 3l-299 -13l-4 228zM378 520l4 -62l-17 -2l-42 -125l-86 2l-126 -2l-36 116l-22 6l-3 62l201 1l1 -55l-13 -4l10 -32l19 32l-7 3v56zM702 471l-87 2l-25 -81h-19l3 69l19 3l3 56l-208 -1l3 -61l14 -2l-1 -72l-15 -1l-1 -53l312 5zM215 133l180 -4
l-3 52h-15l-3 62l17 2l1 44l-94 -6l1 -44l12 -1l1 -33l-45 77l-187 2l1 -47l16 -5l3 -60l-12 -3v-54h27l72 6l-5 46l-18 7l-5 44zM537 132l146 -8l-3 136l-59 -4l-14 -72l-26 -3l1 62l15 3l-2 51l-193 -7l1 -44l20 -1l-2 -64l-17 -2v-49z" />
    <glyph glyph-name="uni00B2" unicode="&#xb2;" 
d="M702 319l12 -224l-361 3l-299 -13l-4 228zM378 520l4 -62l-17 -2l-42 -125l-86 2l-126 -2l-36 116l-22 6l-3 62l201 1l1 -55l-13 -4l10 -32l19 32l-7 3v56zM702 471l-87 2l-25 -81h-19l3 69l19 3l3 56l-208 -1l3 -61l14 -2l-1 -72l-15 -1l-1 -53l312 5zM215 133l180 -4
l-3 52h-15l-3 62l17 2l1 44l-94 -6l1 -44l12 -1l1 -33l-45 77l-187 2l1 -47l16 -5l3 -60l-12 -3v-54h27l72 6l-5 46l-18 7l-5 44zM537 132l146 -8l-3 136l-59 -4l-14 -72l-26 -3l1 62l15 3l-2 51l-193 -7l1 -44l20 -1l-2 -64l-17 -2v-49z" />
    <glyph glyph-name="uni00B3" unicode="&#xb3;" 
d="M702 319l12 -224l-361 3l-299 -13l-4 228zM378 520l4 -62l-17 -2l-42 -125l-86 2l-126 -2l-36 116l-22 6l-3 62l201 1l1 -55l-13 -4l10 -32l19 32l-7 3v56zM702 471l-87 2l-25 -81h-19l3 69l19 3l3 56l-208 -1l3 -61l14 -2l-1 -72l-15 -1l-1 -53l312 5zM215 133l180 -4
l-3 52h-15l-3 62l17 2l1 44l-94 -6l1 -44l12 -1l1 -33l-45 77l-187 2l1 -47l16 -5l3 -60l-12 -3v-54h27l72 6l-5 46l-18 7l-5 44zM537 132l146 -8l-3 136l-59 -4l-14 -72l-26 -3l1 62l15 3l-2 51l-193 -7l1 -44l20 -1l-2 -64l-17 -2v-49z" />
    <glyph glyph-name="acute" unicode="&#xb4;" horiz-adv-x="968" 
d="M623 946v-72q0 -24 -24 -24h-230q-24 0 -24 24v32q0 9 6.5 15.5t17.5 8.5l230 40q8 2 16 -6.5t8 -17.5z" />
    <glyph glyph-name="uni00B5" unicode="&#xb5;" 
d="M702 319l12 -224l-361 3l-299 -13l-4 228zM378 520l4 -62l-17 -2l-42 -125l-86 2l-126 -2l-36 116l-22 6l-3 62l201 1l1 -55l-13 -4l10 -32l19 32l-7 3v56zM702 471l-87 2l-25 -81h-19l3 69l19 3l3 56l-208 -1l3 -61l14 -2l-1 -72l-15 -1l-1 -53l312 5zM215 133l180 -4
l-3 52h-15l-3 62l17 2l1 44l-94 -6l1 -44l12 -1l1 -33l-45 77l-187 2l1 -47l16 -5l3 -60l-12 -3v-54h27l72 6l-5 46l-18 7l-5 44zM537 132l146 -8l-3 136l-59 -4l-14 -72l-26 -3l1 62l15 3l-2 51l-193 -7l1 -44l20 -1l-2 -64l-17 -2v-49z" />
    <glyph glyph-name="uni00B5" unicode="&#x3bc;" 
d="M702 319l12 -224l-361 3l-299 -13l-4 228zM378 520l4 -62l-17 -2l-42 -125l-86 2l-126 -2l-36 116l-22 6l-3 62l201 1l1 -55l-13 -4l10 -32l19 32l-7 3v56zM702 471l-87 2l-25 -81h-19l3 69l19 3l3 56l-208 -1l3 -61l14 -2l-1 -72l-15 -1l-1 -53l312 5zM215 133l180 -4
l-3 52h-15l-3 62l17 2l1 44l-94 -6l1 -44l12 -1l1 -33l-45 77l-187 2l1 -47l16 -5l3 -60l-12 -3v-54h27l72 6l-5 46l-18 7l-5 44zM537 132l146 -8l-3 136l-59 -4l-14 -72l-26 -3l1 62l15 3l-2 51l-193 -7l1 -44l20 -1l-2 -64l-17 -2v-49z" />
    <glyph glyph-name="paragraph" unicode="&#xb6;" horiz-adv-x="995" 
d="M945 608v-584q0 -24 -24 -24h-170q-24 0 -24 24v511q0 20 -14 34t-34 14h-377q-20 0 -34 -14t-14 -34v-87q0 -20 14 -34t34 -14h328q24 0 24 -24v-352q0 -24 -24 -24h-70q-24 0 -24 24v134q0 24 -24 24h-285q-80 0 -136 56t-56 135v235q0 79 56 135q57 57 136 57h527
q79 0 135 -56t56 -136z" />
    <glyph glyph-name="periodcentered" unicode="&#xb7;" 
d="M702 319l12 -224l-361 3l-299 -13l-4 228zM378 520l4 -62l-17 -2l-42 -125l-86 2l-126 -2l-36 116l-22 6l-3 62l201 1l1 -55l-13 -4l10 -32l19 32l-7 3v56zM702 471l-87 2l-25 -81h-19l3 69l19 3l3 56l-208 -1l3 -61l14 -2l-1 -72l-15 -1l-1 -53l312 5zM215 133l180 -4
l-3 52h-15l-3 62l17 2l1 44l-94 -6l1 -44l12 -1l1 -33l-45 77l-187 2l1 -47l16 -5l3 -60l-12 -3v-54h27l72 6l-5 46l-18 7l-5 44zM537 132l146 -8l-3 136l-59 -4l-14 -72l-26 -3l1 62l15 3l-2 51l-193 -7l1 -44l20 -1l-2 -64l-17 -2v-49z" />
    <glyph glyph-name="cedilla" unicode="&#xb8;" horiz-adv-x="842" 
d="M548 26l83 -26q-24 0 -24 -24q0 -23 -10 -50t-27 -50q-38 -50 -83 -50h-134q-24 0 -24 24v96q0 24 24 24h75q15 0 15 15t-15 15h-1q13 28 91 28q20 0 30 -2z" />
    <glyph glyph-name="uni00B9" unicode="&#xb9;" 
d="M702 319l12 -224l-361 3l-299 -13l-4 228zM378 520l4 -62l-17 -2l-42 -125l-86 2l-126 -2l-36 116l-22 6l-3 62l201 1l1 -55l-13 -4l10 -32l19 32l-7 3v56zM702 471l-87 2l-25 -81h-19l3 69l19 3l3 56l-208 -1l3 -61l14 -2l-1 -72l-15 -1l-1 -53l312 5zM215 133l180 -4
l-3 52h-15l-3 62l17 2l1 44l-94 -6l1 -44l12 -1l1 -33l-45 77l-187 2l1 -47l16 -5l3 -60l-12 -3v-54h27l72 6l-5 46l-18 7l-5 44zM537 132l146 -8l-3 136l-59 -4l-14 -72l-26 -3l1 62l15 3l-2 51l-193 -7l1 -44l20 -1l-2 -64l-17 -2v-49z" />
    <glyph glyph-name="ordmasculine" unicode="&#xba;" 
d="M702 319l12 -224l-361 3l-299 -13l-4 228zM378 520l4 -62l-17 -2l-42 -125l-86 2l-126 -2l-36 116l-22 6l-3 62l201 1l1 -55l-13 -4l10 -32l19 32l-7 3v56zM702 471l-87 2l-25 -81h-19l3 69l19 3l3 56l-208 -1l3 -61l14 -2l-1 -72l-15 -1l-1 -53l312 5zM215 133l180 -4
l-3 52h-15l-3 62l17 2l1 44l-94 -6l1 -44l12 -1l1 -33l-45 77l-187 2l1 -47l16 -5l3 -60l-12 -3v-54h27l72 6l-5 46l-18 7l-5 44zM537 132l146 -8l-3 136l-59 -4l-14 -72l-26 -3l1 62l15 3l-2 51l-193 -7l1 -44l20 -1l-2 -64l-17 -2v-49z" />
    <glyph glyph-name="guillemotright" unicode="&#xbb;" 
d="M702 319l12 -224l-361 3l-299 -13l-4 228zM378 520l4 -62l-17 -2l-42 -125l-86 2l-126 -2l-36 116l-22 6l-3 62l201 1l1 -55l-13 -4l10 -32l19 32l-7 3v56zM702 471l-87 2l-25 -81h-19l3 69l19 3l3 56l-208 -1l3 -61l14 -2l-1 -72l-15 -1l-1 -53l312 5zM215 133l180 -4
l-3 52h-15l-3 62l17 2l1 44l-94 -6l1 -44l12 -1l1 -33l-45 77l-187 2l1 -47l16 -5l3 -60l-12 -3v-54h27l72 6l-5 46l-18 7l-5 44zM537 132l146 -8l-3 136l-59 -4l-14 -72l-26 -3l1 62l15 3l-2 51l-193 -7l1 -44l20 -1l-2 -64l-17 -2v-49z" />
    <glyph glyph-name="onequarter" unicode="&#xbc;" 
d="M702 319l12 -224l-361 3l-299 -13l-4 228zM378 520l4 -62l-17 -2l-42 -125l-86 2l-126 -2l-36 116l-22 6l-3 62l201 1l1 -55l-13 -4l10 -32l19 32l-7 3v56zM702 471l-87 2l-25 -81h-19l3 69l19 3l3 56l-208 -1l3 -61l14 -2l-1 -72l-15 -1l-1 -53l312 5zM215 133l180 -4
l-3 52h-15l-3 62l17 2l1 44l-94 -6l1 -44l12 -1l1 -33l-45 77l-187 2l1 -47l16 -5l3 -60l-12 -3v-54h27l72 6l-5 46l-18 7l-5 44zM537 132l146 -8l-3 136l-59 -4l-14 -72l-26 -3l1 62l15 3l-2 51l-193 -7l1 -44l20 -1l-2 -64l-17 -2v-49z" />
    <glyph glyph-name="onehalf" unicode="&#xbd;" 
d="M702 319l12 -224l-361 3l-299 -13l-4 228zM378 520l4 -62l-17 -2l-42 -125l-86 2l-126 -2l-36 116l-22 6l-3 62l201 1l1 -55l-13 -4l10 -32l19 32l-7 3v56zM702 471l-87 2l-25 -81h-19l3 69l19 3l3 56l-208 -1l3 -61l14 -2l-1 -72l-15 -1l-1 -53l312 5zM215 133l180 -4
l-3 52h-15l-3 62l17 2l1 44l-94 -6l1 -44l12 -1l1 -33l-45 77l-187 2l1 -47l16 -5l3 -60l-12 -3v-54h27l72 6l-5 46l-18 7l-5 44zM537 132l146 -8l-3 136l-59 -4l-14 -72l-26 -3l1 62l15 3l-2 51l-193 -7l1 -44l20 -1l-2 -64l-17 -2v-49z" />
    <glyph glyph-name="threequarters" unicode="&#xbe;" 
d="M702 319l12 -224l-361 3l-299 -13l-4 228zM378 520l4 -62l-17 -2l-42 -125l-86 2l-126 -2l-36 116l-22 6l-3 62l201 1l1 -55l-13 -4l10 -32l19 32l-7 3v56zM702 471l-87 2l-25 -81h-19l3 69l19 3l3 56l-208 -1l3 -61l14 -2l-1 -72l-15 -1l-1 -53l312 5zM215 133l180 -4
l-3 52h-15l-3 62l17 2l1 44l-94 -6l1 -44l12 -1l1 -33l-45 77l-187 2l1 -47l16 -5l3 -60l-12 -3v-54h27l72 6l-5 46l-18 7l-5 44zM537 132l146 -8l-3 136l-59 -4l-14 -72l-26 -3l1 62l15 3l-2 51l-193 -7l1 -44l20 -1l-2 -64l-17 -2v-49z" />
    <glyph glyph-name="questiondown" unicode="&#xbf;" horiz-adv-x="851" 
d="M15 192v125q0 79 56 135q57 57 136 57h170q42 0 42 37q0 24 24 24h177q24 0 24 -24v-63q0 -79 -57 -136q-56 -56 -135 -56h-170q-42 0 -42 -36q0 -38 42 -38h520q24 0 24 -24v-169q0 -24 -24 -24h-595q-78 0 -136 56q-56 58 -56 136zM423 624v152q0 24 24 24h170
q24 0 24 -24v-152q0 -24 -24 -24h-170q-24 0 -24 24z" />
    <glyph glyph-name="Agrave" unicode="&#xc0;" horiz-adv-x="961" 
d="M801 776v-752q0 -24 -24 -24h-170q-24 0 -24 24v75q0 24 -24 24h-283q-24 0 -24 -24v-73q0 -12 -6.5 -19t-17.5 -7h-169q-24 0 -24 24v399q0 149 114 263t263 114h365q24 0 24 -24zM583 365v194q0 24 -24 24h-90q-88 0 -144 -63q-55 -62 -55 -155q0 -24 24 -24h265
q24 0 24 24zM623 906v-32q0 -24 -24 -24h-230q-24 0 -24 24v72q0 9 8 17.5t16 6.5l230 -40q11 -2 17.5 -8.5t6.5 -15.5z" />
    <glyph glyph-name="Aacute" unicode="&#xc1;" horiz-adv-x="961" 
d="M801 776v-752q0 -24 -24 -24h-170q-24 0 -24 24v75q0 24 -24 24h-283q-24 0 -24 -24v-73q0 -12 -6.5 -19t-17.5 -7h-169q-24 0 -24 24v399q0 149 114 263t263 114h365q24 0 24 -24zM583 365v194q0 24 -24 24h-90q-88 0 -144 -63q-55 -62 -55 -155q0 -24 24 -24h265
q24 0 24 24zM623 946v-72q0 -24 -24 -24h-230q-24 0 -24 24v32q0 9 6.5 15.5t17.5 8.5l230 40q8 2 16 -6.5t8 -17.5z" />
    <glyph glyph-name="Acircumflex" unicode="&#xc2;" horiz-adv-x="961" 
d="M801 776v-752q0 -24 -24 -24h-170q-24 0 -24 24v75q0 24 -24 24h-283q-24 0 -24 -24v-73q0 -12 -6.5 -19t-17.5 -7h-169q-24 0 -24 24v399q0 149 114 263t263 114h365q24 0 24 -24zM583 365v194q0 24 -24 24h-90q-88 0 -144 -63q-55 -62 -55 -155q0 -24 24 -24h265
q24 0 24 24zM644 906v-32q0 -9 -8 -17.5t-16 -6.5l-113 29q-6 2 -17 2t-17 -2l-115 -29q-8 -2 -16 6.5t-8 17.5v32q0 8 6.5 14t17.5 10l110 38q20 8 41 0l111 -38q11 -4 17.5 -10t6.5 -14z" />
    <glyph glyph-name="Atilde" unicode="&#xc3;" horiz-adv-x="961" 
d="M801 776v-752q0 -24 -24 -24h-170q-24 0 -24 24v75q0 24 -24 24h-283q-24 0 -24 -24v-73q0 -12 -6.5 -19t-17.5 -7h-169q-24 0 -24 24v399q0 149 114 263t263 114h365q24 0 24 -24zM583 365v194q0 24 -24 24h-90q-88 0 -144 -63q-55 -62 -55 -155q0 -24 24 -24h265
q24 0 24 24zM662 936v-42q0 -10 -24 -24l-70 -38q-18 -11 -41 0l-81 36q-18 8 -34 1l-75 -29q-11 -4 -17.5 -0.5t-6.5 14.5v42q0 11 24 24l70 38q19 10 41 0l81 -37q16 -7 34 0l75 29q11 4 17.5 0.5t6.5 -14.5z" />
    <glyph glyph-name="Adieresis" unicode="&#xc4;" horiz-adv-x="961" 
d="M801 776v-752q0 -24 -24 -24h-170q-24 0 -24 24v75q0 24 -24 24h-283q-24 0 -24 -24v-73q0 -12 -6.5 -19t-17.5 -7h-169q-24 0 -24 24v399q0 149 114 263t263 114h365q24 0 24 -24zM583 365v194q0 24 -24 24h-90q-88 0 -144 -63q-55 -62 -55 -155q0 -24 24 -24h265
q24 0 24 24zM657 936v-62q0 -24 -24 -24h-90q-24 0 -24 24v62q0 24 24 24h90q24 0 24 -24zM457 936v-62q0 -24 -24 -24h-90q-24 0 -24 24v62q0 24 24 24h90q24 0 24 -24z" />
    <glyph glyph-name="Aring" unicode="&#xc5;" horiz-adv-x="866" 
d="M816 608v-584q0 -24 -24 -24h-170q-24 0 -24 24v75q0 24 -24 24h-283q-24 0 -24 -24v-73q0 -12 -6.5 -19t-17.5 -7h-169q-24 0 -24 24v584q0 79 56 135q57 57 136 57h52q16 0 50 24q35 24 53 24h79q18 0 52 -24q35 -24 51 -24h45q80 0 135 -57q57 -55 57 -135zM489 669
v48q0 13 -7 20t-20 7h-50q-13 0 -20 -7t-7 -20v-48q0 -13 7 -20t20 -7h50q13 0 20 7t7 20zM598 365v170q0 48 -27 48q-15 0 -43 -23q-26 -22 -44 -22h-95q-19 0 -45 22q-26 23 -41 23q-36 0 -36 -49v-169q0 -24 24 -24h283q24 0 24 24z" />
    <glyph glyph-name="AE" unicode="&#xc6;" horiz-adv-x="1346" 
d="M1311 195v-171q0 -24 -24 -24h-503q-11 0 -41 11q-28 11 -41 8q-16 3 -41 -7q-28 -12 -42 -12h-392q-78 0 -136 56q-56 58 -56 136v125q0 79 56 135q57 57 136 57h269q24 0 24 -24v-170q0 -24 -24 -24h-194q-42 0 -42 -37q0 -35 42 -35h242q20 0 34 13.5t14 33.5v269
q0 20 -14 34t-34 14h-266q-24 0 -24 24v169q0 24 24 24h341q14 0 42 -12q25 -10 41 -7q13 -3 41 8q30 11 41 11h503q24 0 24 -24v-169q0 -24 -24 -24h-435q-42 0 -42 -37t42 -37h292q24 0 24 -24v-170q0 -24 -24 -24h-292q-42 0 -42 -37q0 -35 42 -35h435q24 0 24 -24z" />
    <glyph glyph-name="Ccedilla" unicode="&#xc7;" horiz-adv-x="842" 
d="M817 195v-171q0 -24 -24 -24h-162q-24 0 -24 -24q0 -23 -10 -50t-27 -50q-38 -50 -83 -50h-134q-24 0 -24 24v96q0 24 24 24h75q15 0 15 15t-15 15h-1q-148 0 -263 113q-114 114 -114 263v232q0 79 56 135q57 57 136 57h551q24 0 24 -24v-169q0 -24 -24 -24h-477
q-20 0 -34 -14t-14 -34v-100q0 -90 63 -153q65 -63 154 -63h308q24 0 24 -24z" />
    <glyph glyph-name="Egrave" unicode="&#xc8;" horiz-adv-x="961" 
d="M876 195v-171q0 -24 -24 -24h-610q-78 0 -136 56q-56 58 -56 136v416q0 79 56 135q57 57 136 57h610q24 0 24 -24v-169q0 -24 -24 -24h-535q-42 0 -42 -37t42 -37h292q24 0 24 -24v-170q0 -24 -24 -24h-292q-42 0 -42 -37q0 -35 42 -35h535q24 0 24 -24zM623 906v-32
q0 -24 -24 -24h-230q-24 0 -24 24v72q0 9 8 17.5t16 6.5l230 -40q11 -2 17.5 -8.5t6.5 -15.5z" />
    <glyph glyph-name="Eacute" unicode="&#xc9;" horiz-adv-x="961" 
d="M876 195v-171q0 -24 -24 -24h-610q-78 0 -136 56q-56 58 -56 136v416q0 79 56 135q57 57 136 57h610q24 0 24 -24v-169q0 -24 -24 -24h-535q-42 0 -42 -37t42 -37h292q24 0 24 -24v-170q0 -24 -24 -24h-292q-42 0 -42 -37q0 -35 42 -35h535q24 0 24 -24zM623 946v-72
q0 -24 -24 -24h-230q-24 0 -24 24v32q0 9 6.5 15.5t17.5 8.5l230 40q8 2 16 -6.5t8 -17.5z" />
    <glyph glyph-name="Ecircumflex" unicode="&#xca;" horiz-adv-x="961" 
d="M876 195v-171q0 -24 -24 -24h-610q-78 0 -136 56q-56 58 -56 136v416q0 79 56 135q57 57 136 57h610q24 0 24 -24v-169q0 -24 -24 -24h-535q-42 0 -42 -37t42 -37h292q24 0 24 -24v-170q0 -24 -24 -24h-292q-42 0 -42 -37q0 -35 42 -35h535q24 0 24 -24zM644 906v-32
q0 -9 -8 -17.5t-16 -6.5l-113 29q-6 2 -17 2t-17 -2l-115 -29q-8 -2 -16 6.5t-8 17.5v32q0 8 6.5 14t17.5 10l110 38q20 8 41 0l111 -38q11 -4 17.5 -10t6.5 -14z" />
    <glyph glyph-name="Edieresis" unicode="&#xcb;" horiz-adv-x="961" 
d="M876 195v-171q0 -24 -24 -24h-610q-78 0 -136 56q-56 58 -56 136v416q0 79 56 135q57 57 136 57h610q24 0 24 -24v-169q0 -24 -24 -24h-535q-42 0 -42 -37t42 -37h292q24 0 24 -24v-170q0 -24 -24 -24h-292q-42 0 -42 -37q0 -35 42 -35h535q24 0 24 -24zM657 936v-62
q0 -24 -24 -24h-90q-24 0 -24 24v62q0 24 24 24h90q24 0 24 -24zM457 936v-62q0 -24 -24 -24h-90q-24 0 -24 24v62q0 24 24 24h90q24 0 24 -24z" />
    <glyph glyph-name="Igrave" unicode="&#xcc;" horiz-adv-x="318" 
d="M268 776v-752q0 -24 -24 -24h-170q-24 0 -24 24v752q0 24 24 24h170q24 0 24 -24zM268 906v-32q0 -24 -24 -24h-230q-24 0 -24 24v72q0 9 8 17.5t16 6.5l230 -40q11 -2 17.5 -8.5t6.5 -15.5z" />
    <glyph glyph-name="Iacute" unicode="&#xcd;" horiz-adv-x="318" 
d="M268 776v-752q0 -24 -24 -24h-170q-24 0 -24 24v752q0 24 24 24h170q24 0 24 -24zM328 946v-72q0 -24 -24 -24h-230q-24 0 -24 24v32q0 9 6.5 15.5t17.5 8.5l230 40q8 2 16 -6.5t8 -17.5z" />
    <glyph glyph-name="Icircumflex" unicode="&#xce;" horiz-adv-x="318" 
d="M268 776v-752q0 -24 -24 -24h-170q-24 0 -24 24v752q0 24 24 24h170q24 0 24 -24zM314 906v-32q0 -9 -8 -17.5t-16 -6.5l-113 29q-6 2 -17 2t-17 -2l-115 -29q-8 -2 -16 6.5t-8 17.5v32q0 8 6.5 14t17.5 10l110 38q20 8 41 0l111 -38q11 -4 17.5 -10t6.5 -14z" />
    <glyph glyph-name="Idieresis" unicode="&#xcf;" horiz-adv-x="318" 
d="M268 776v-752q0 -24 -24 -24h-170q-24 0 -24 24v752q0 24 24 24h170q24 0 24 -24zM328 936v-62q0 -24 -24 -24h-90q-24 0 -24 24v62q0 24 24 24h90q24 0 24 -24zM128 936v-62q0 -24 -24 -24h-90q-24 0 -24 24v62q0 24 24 24h90q24 0 24 -24z" />
    <glyph glyph-name="Eth" unicode="&#xd0;" 
d="M702 319l12 -224l-361 3l-299 -13l-4 228zM378 520l4 -62l-17 -2l-42 -125l-86 2l-126 -2l-36 116l-22 6l-3 62l201 1l1 -55l-13 -4l10 -32l19 32l-7 3v56zM702 471l-87 2l-25 -81h-19l3 69l19 3l3 56l-208 -1l3 -61l14 -2l-1 -72l-15 -1l-1 -53l312 5zM215 133l180 -4
l-3 52h-15l-3 62l17 2l1 44l-94 -6l1 -44l12 -1l1 -33l-45 77l-187 2l1 -47l16 -5l3 -60l-12 -3v-54h27l72 6l-5 46l-18 7l-5 44zM537 132l146 -8l-3 136l-59 -4l-14 -72l-26 -3l1 62l15 3l-2 51l-193 -7l1 -44l20 -1l-2 -64l-17 -2v-49z" />
    <glyph glyph-name="Ntilde" unicode="&#xd1;" horiz-adv-x="919" 
d="M883 423l1 -399q0 -24 -24 -24h-170q-24 0 -24 24v341q0 90 -64 154q-63 64 -153 64h-157q-24 0 -24 -24v-535q0 -24 -24 -24h-170q-24 0 -24 24v752q0 24 24 24h433q73 0 140 -29t122 -85q114 -114 114 -263zM612 936v-42q0 -10 -24 -24l-70 -38q-18 -11 -41 0l-81 36
q-18 8 -34 1l-75 -29q-11 -4 -17.5 -0.5t-6.5 14.5v42q0 11 24 24l70 38q19 10 41 0l81 -37q16 -7 34 0l75 29q11 4 17.5 0.5t6.5 -14.5z" />
    <glyph glyph-name="Ograve" unicode="&#xd2;" horiz-adv-x="976" 
d="M926 608v-416q0 -79 -57 -136q-56 -56 -135 -56h-492q-78 0 -136 56q-56 58 -56 136v416q0 79 56 135q57 57 136 57h492q80 0 135 -57q57 -55 57 -135zM707 267v268q0 20 -14 34t-34 14h-342q-20 0 -34 -14t-14 -34v-268q0 -20 14 -34t34 -14h342q20 0 34 14t14 34z
M623 906v-32q0 -24 -24 -24h-230q-24 0 -24 24v72q0 9 8 17.5t16 6.5l230 -40q11 -2 17.5 -8.5t6.5 -15.5z" />
    <glyph glyph-name="Oacute" unicode="&#xd3;" horiz-adv-x="976" 
d="M926 608v-416q0 -79 -57 -136q-56 -56 -135 -56h-492q-78 0 -136 56q-56 58 -56 136v416q0 79 56 135q57 57 136 57h492q80 0 135 -57q57 -55 57 -135zM707 267v268q0 20 -14 34t-34 14h-342q-20 0 -34 -14t-14 -34v-268q0 -20 14 -34t34 -14h342q20 0 34 14t14 34z
M623 946v-72q0 -24 -24 -24h-230q-24 0 -24 24v32q0 9 6.5 15.5t17.5 8.5l230 40q8 2 16 -6.5t8 -17.5z" />
    <glyph glyph-name="Ocircumflex" unicode="&#xd4;" horiz-adv-x="976" 
d="M926 608v-416q0 -79 -57 -136q-56 -56 -135 -56h-492q-78 0 -136 56q-56 58 -56 136v416q0 79 56 135q57 57 136 57h492q80 0 135 -57q57 -55 57 -135zM707 267v268q0 20 -14 34t-34 14h-342q-20 0 -34 -14t-14 -34v-268q0 -20 14 -34t34 -14h342q20 0 34 14t14 34z
M644 896v-32q0 -9 -8 -17.5t-16 -6.5l-113 29q-6 2 -17 2t-17 -2l-115 -29q-8 -2 -16 6.5t-8 17.5v32q0 8 6.5 14t17.5 10l110 38q20 8 41 0l111 -38q11 -4 17.5 -10t6.5 -14z" />
    <glyph glyph-name="Otilde" unicode="&#xd5;" horiz-adv-x="976" 
d="M926 608v-416q0 -79 -57 -136q-56 -56 -135 -56h-492q-78 0 -136 56q-56 58 -56 136v416q0 79 56 135q57 57 136 57h492q80 0 135 -57q57 -55 57 -135zM707 267v268q0 20 -14 34t-34 14h-342q-20 0 -34 -14t-14 -34v-268q0 -20 14 -34t34 -14h342q20 0 34 14t14 34z
M662 936v-42q0 -10 -24 -24l-70 -38q-18 -11 -41 0l-81 36q-18 8 -34 1l-75 -29q-11 -4 -17.5 -0.5t-6.5 14.5v42q0 11 24 24l70 38q19 10 41 0l81 -37q16 -7 34 0l75 29q11 4 17.5 0.5t6.5 -14.5z" />
    <glyph glyph-name="Odieresis" unicode="&#xd6;" horiz-adv-x="976" 
d="M926 608v-416q0 -79 -57 -136q-56 -56 -135 -56h-492q-78 0 -136 56q-56 58 -56 136v416q0 79 56 135q57 57 136 57h492q80 0 135 -57q57 -55 57 -135zM707 267v268q0 20 -14 34t-34 14h-342q-20 0 -34 -14t-14 -34v-268q0 -20 14 -34t34 -14h342q20 0 34 14t14 34z
M657 936v-62q0 -24 -24 -24h-90q-24 0 -24 24v62q0 24 24 24h90q24 0 24 -24zM457 936v-62q0 -24 -24 -24h-90q-24 0 -24 24v62q0 24 24 24h90q24 0 24 -24z" />
    <glyph glyph-name="multiply" unicode="&#xd7;" 
d="M702 319l12 -224l-361 3l-299 -13l-4 228zM378 520l4 -62l-17 -2l-42 -125l-86 2l-126 -2l-36 116l-22 6l-3 62l201 1l1 -55l-13 -4l10 -32l19 32l-7 3v56zM702 471l-87 2l-25 -81h-19l3 69l19 3l3 56l-208 -1l3 -61l14 -2l-1 -72l-15 -1l-1 -53l312 5zM215 133l180 -4
l-3 52h-15l-3 62l17 2l1 44l-94 -6l1 -44l12 -1l1 -33l-45 77l-187 2l1 -47l16 -5l3 -60l-12 -3v-54h27l72 6l-5 46l-18 7l-5 44zM537 132l146 -8l-3 136l-59 -4l-14 -72l-26 -3l1 62l15 3l-2 51l-193 -7l1 -44l20 -1l-2 -64l-17 -2v-49z" />
    <glyph glyph-name="Oslash" unicode="&#xd8;" horiz-adv-x="976" 
d="M926 608v-416q0 -79 -57 -136q-56 -56 -135 -56h-217q-18 0 -24 -25q-2 -12 -8.5 -18.5t-15.5 -6.5h-160q-9 0 -17.5 6.5t-7.5 13.5l1 6q2 9 -6 16.5t-18 7.5h-19q-78 0 -136 56q-56 58 -56 136v416q0 79 56 135q57 57 136 57h217q9 0 15 6.5t8 18.5q6 25 25 25h160
q9 0 17.5 -6.5t7.5 -13.5l-1 -6q-2 -9 6 -16.5t18 -7.5h19q80 0 135 -57q57 -55 57 -135zM715 254v294q0 21 -16 37t-37 16q-13 0 -21.5 -7t-11.5 -19l-81 -343q-2 -10 6.5 -20.5t19.5 -10.5h88q21 0 37 16t16 37zM347 227l81 343q2 10 -6.5 20.5t-19.5 10.5h-88
q-21 0 -37 -16t-16 -37v-294q0 -21 16 -37t37 -16q13 0 21.5 7t11.5 19z" />
    <glyph glyph-name="Ugrave" unicode="&#xd9;" horiz-adv-x="976" 
d="M926 776v-584q0 -79 -57 -136q-56 -56 -135 -56h-492q-78 0 -136 56q-56 56 -56 136l1 584q0 24 24 24h170q24 0 24 -24v-509q0 -20 14 -34t34 -14h342q20 0 34 14t14 34v507q0 12 6.5 19t17.5 7h171q24 0 24 -24zM623 906v-32q0 -24 -24 -24h-230q-24 0 -24 24v72
q0 9 8 17.5t16 6.5l230 -40q11 -2 17.5 -8.5t6.5 -15.5z" />
    <glyph glyph-name="Uacute" unicode="&#xda;" horiz-adv-x="976" 
d="M926 776v-584q0 -79 -57 -136q-56 -56 -135 -56h-492q-78 0 -136 56q-56 56 -56 136l1 584q0 24 24 24h170q24 0 24 -24v-509q0 -20 14 -34t34 -14h342q20 0 34 14t14 34v507q0 12 6.5 19t17.5 7h171q24 0 24 -24zM623 946v-72q0 -24 -24 -24h-230q-24 0 -24 24v32
q0 9 6.5 15.5t17.5 8.5l230 40q8 2 16 -6.5t8 -17.5z" />
    <glyph glyph-name="Ucircumflex" unicode="&#xdb;" horiz-adv-x="976" 
d="M926 776v-584q0 -79 -57 -136q-56 -56 -135 -56h-492q-78 0 -136 56q-56 56 -56 136l1 584q0 24 24 24h170q24 0 24 -24v-509q0 -20 14 -34t34 -14h342q20 0 34 14t14 34v507q0 12 6.5 19t17.5 7h171q24 0 24 -24zM644 876v-32q0 -9 -8 -17.5t-16 -6.5l-113 29
q-6 2 -17 2t-17 -2l-115 -29q-8 -2 -16 6.5t-8 17.5v32q0 8 6.5 14t17.5 10l110 38q20 8 41 0l111 -38q11 -4 17.5 -10t6.5 -14z" />
    <glyph glyph-name="Udieresis" unicode="&#xdc;" horiz-adv-x="976" 
d="M926 776v-584q0 -79 -57 -136q-56 -56 -135 -56h-492q-78 0 -136 56q-56 56 -56 136l1 584q0 24 24 24h170q24 0 24 -24v-509q0 -20 14 -34t34 -14h342q20 0 34 14t14 34v507q0 12 6.5 19t17.5 7h171q24 0 24 -24zM657 926v-62q0 -24 -24 -24h-90q-24 0 -24 24v62
q0 24 24 24h90q24 0 24 -24zM457 926v-62q0 -24 -24 -24h-90q-24 0 -24 24v62q0 24 24 24h90q24 0 24 -24z" />
    <glyph glyph-name="Yacute" unicode="&#xdd;" horiz-adv-x="854" 
d="M829 776v-171q0 -134 -73 -237q-75 -106 -197 -132q-23 -5 -23 -22v-190q0 -24 -24 -24h-170q-24 0 -24 24v188q0 18 -22 24q-122 33 -197 135q-74 103 -74 234v171q0 24 24 24h169q24 0 24 -24v-112q0 -95 48 -154q50 -63 137 -63q88 0 137 63q48 59 48 154v112
q0 24 24 24h169q24 0 24 -24zM566 946v-72q0 -24 -24 -24h-230q-24 0 -24 24v32q0 9 6.5 15.5t17.5 8.5l230 40q8 2 16 -6.5t8 -17.5z" />
    <glyph glyph-name="Thorn" unicode="&#xde;" 
d="M702 319l12 -224l-361 3l-299 -13l-4 228zM378 520l4 -62l-17 -2l-42 -125l-86 2l-126 -2l-36 116l-22 6l-3 62l201 1l1 -55l-13 -4l10 -32l19 32l-7 3v56zM702 471l-87 2l-25 -81h-19l3 69l19 3l3 56l-208 -1l3 -61l14 -2l-1 -72l-15 -1l-1 -53l312 5zM215 133l180 -4
l-3 52h-15l-3 62l17 2l1 44l-94 -6l1 -44l12 -1l1 -33l-45 77l-187 2l1 -47l16 -5l3 -60l-12 -3v-54h27l72 6l-5 46l-18 7l-5 44zM537 132l146 -8l-3 136l-59 -4l-14 -72l-26 -3l1 62l15 3l-2 51l-193 -7l1 -44l20 -1l-2 -64l-17 -2v-49z" />
    <glyph glyph-name="germandbls" unicode="&#xdf;" horiz-adv-x="856" 
d="M841 317v-125q0 -79 -57 -136q-56 -56 -135 -56h-307q-24 0 -24 24v170q0 24 24 24l232 1q42 0 42 36t-42 36h-232q-24 0 -24 24v170q0 24 24 24h24q41 0 41 36q0 38 -41 38h-74q-24 0 -24 -25v-633q0 -25 -24 -25h-170q-24 0 -24 24v684q0 79 56 135q57 57 136 57h181
q80 0 135 -57q57 -55 57 -135v-79q0 -9 5.5 -14.5t14.5 -5.5h14q80 0 135 -57q57 -55 57 -135z" />
    <glyph glyph-name="agrave" unicode="&#xe0;" horiz-adv-x="961" 
d="M623 906v-32q0 -24 -24 -24h-230q-24 0 -24 24v72q0 9 8 17.5t16 6.5l230 -40q11 -2 17.5 -8.5t6.5 -15.5zM911 608v-416q0 -79 -57 -136q-56 -56 -135 -56h-492q-78 0 -136 56q-56 58 -56 136v125q0 79 56 135q57 57 136 57h369q24 0 24 -24v-170q0 -24 -24 -24h-294
q-42 0 -42 -37q0 -35 42 -35h342q20 0 34 13.5t14 33.5v269q0 20 -14 34t-34 14h-366q-24 0 -24 24v169q0 24 24 24h441q80 0 135 -57q57 -55 57 -135z" />
    <glyph glyph-name="aacute" unicode="&#xe1;" horiz-adv-x="961" 
d="M623 946v-72q0 -24 -24 -24h-230q-24 0 -24 24v32q0 9 6.5 15.5t17.5 8.5l230 40q8 2 16 -6.5t8 -17.5zM911 608v-416q0 -79 -57 -136q-56 -56 -135 -56h-492q-78 0 -136 56q-56 58 -56 136v125q0 79 56 135q57 57 136 57h369q24 0 24 -24v-170q0 -24 -24 -24h-294
q-42 0 -42 -37q0 -35 42 -35h342q20 0 34 13.5t14 33.5v269q0 20 -14 34t-34 14h-366q-24 0 -24 24v169q0 24 24 24h441q80 0 135 -57q57 -55 57 -135z" />
    <glyph glyph-name="acircumflex" unicode="&#xe2;" horiz-adv-x="961" 
d="M644 896v-32q0 -9 -8 -17.5t-16 -6.5l-113 29q-6 2 -17 2t-17 -2l-115 -29q-8 -2 -16 6.5t-8 17.5v32q0 8 6.5 14t17.5 10l110 38q20 8 41 0l111 -38q11 -4 17.5 -10t6.5 -14zM911 608v-416q0 -79 -57 -136q-56 -56 -135 -56h-492q-78 0 -136 56q-56 58 -56 136v125
q0 79 56 135q57 57 136 57h369q24 0 24 -24v-170q0 -24 -24 -24h-294q-42 0 -42 -37q0 -35 42 -35h342q20 0 34 13.5t14 33.5v269q0 20 -14 34t-34 14h-366q-24 0 -24 24v169q0 24 24 24h441q80 0 135 -57q57 -55 57 -135z" />
    <glyph glyph-name="atilde" unicode="&#xe3;" horiz-adv-x="961" 
d="M662 936v-42q0 -10 -24 -24l-70 -38q-18 -11 -41 0l-81 36q-18 8 -34 1l-75 -29q-11 -4 -17.5 -0.5t-6.5 14.5v42q0 11 24 24l70 38q19 10 41 0l81 -37q16 -7 34 0l75 29q11 4 17.5 0.5t6.5 -14.5zM911 608v-416q0 -79 -57 -136q-56 -56 -135 -56h-492q-78 0 -136 56
q-56 58 -56 136v125q0 79 56 135q57 57 136 57h369q24 0 24 -24v-170q0 -24 -24 -24h-294q-42 0 -42 -37q0 -35 42 -35h342q20 0 34 13.5t14 33.5v269q0 20 -14 34t-34 14h-366q-24 0 -24 24v169q0 24 24 24h441q80 0 135 -57q57 -55 57 -135z" />
    <glyph glyph-name="adieresis" unicode="&#xe4;" horiz-adv-x="961" 
d="M657 936v-62q0 -24 -24 -24h-90q-24 0 -24 24v62q0 24 24 24h90q24 0 24 -24zM457 936v-62q0 -24 -24 -24h-90q-24 0 -24 24v62q0 24 24 24h90q24 0 24 -24zM911 608v-416q0 -79 -57 -136q-56 -56 -135 -56h-492q-78 0 -136 56q-56 58 -56 136v125q0 79 56 135
q57 57 136 57h369q24 0 24 -24v-170q0 -24 -24 -24h-294q-42 0 -42 -37q0 -35 42 -35h342q20 0 34 13.5t14 33.5v269q0 20 -14 34t-34 14h-366q-24 0 -24 24v169q0 24 24 24h441q80 0 135 -57q57 -55 57 -135z" />
    <glyph glyph-name="aring" unicode="&#xe5;" horiz-adv-x="976" 
d="M926 608v-416q0 -79 -57 -136q-56 -56 -135 -56h-492q-78 0 -136 56q-56 58 -56 136v125q0 79 56 135q57 57 136 57h369q24 0 24 -24v-170q0 -24 -24 -24h-294q-42 0 -42 -37q0 -35 42 -35h342q20 0 34 13.5t14 33.5v269q0 20 -14 34t-34 14h-31q-15 0 -50 -23
q-34 -22 -51 -22h-121q-18 0 -52 22q-35 23 -49 23h-212q-24 0 -24 24v169q0 24 24 24h210q16 0 50 24q35 24 53 24h121q18 0 52 -24q35 -24 51 -24h104q80 0 135 -57q57 -55 57 -135zM519 669v48q0 13 -7 20t-20 7h-50q-13 0 -20 -7t-7 -20v-48q0 -13 7 -20t20 -7h50
q13 0 20 7t7 20z" />
    <glyph glyph-name="ae" unicode="&#xe6;" horiz-adv-x="1363" 
d="M1348 608v-125q0 -78 -56 -136q-56 -56 -136 -56h-269q-24 0 -24 24v170q0 24 24 24h194q41 0 41 36q0 38 -41 38h-243q-20 0 -33.5 -14.5t-13.5 -34.5v-267q0 -20 13.5 -34t33.5 -14h267q24 0 24 -24v-171q0 -24 -24 -24h-341q-15 0 -42 9q-24 10 -40 10q-15 0 -41 -10
q-27 -9 -42 -9h-392q-78 0 -136 56q-56 58 -56 136v125q0 79 56 135q57 57 136 57h269q24 0 24 -24v-170q0 -24 -24 -24h-194q-42 0 -42 -37q0 -35 42 -35h242q20 0 34 13.5t14 33.5v269q0 20 -14 34t-34 14h-266q-24 0 -24 24v169q0 24 24 24h341q16 0 40 -10q26 -9 43 -9
q13 0 40 9q26 10 42 10h392q80 0 135 -57q57 -55 57 -135z" />
    <glyph glyph-name="ccedilla" unicode="&#xe7;" horiz-adv-x="842" 
d="M817 195v-171q0 -24 -24 -24h-162q-24 0 -24 -24q0 -23 -10 -50t-27 -50q-38 -50 -83 -50h-134q-24 0 -24 24v96q0 24 24 24h75q15 0 15 15t-15 15h-1q-148 0 -263 113q-114 114 -114 263v232q0 79 56 135q57 57 136 57h551q24 0 24 -24v-169q0 -24 -24 -24h-477
q-20 0 -34 -14t-14 -34v-100q0 -90 63 -153q65 -63 154 -63h308q24 0 24 -24z" />
    <glyph glyph-name="egrave" unicode="&#xe8;" horiz-adv-x="961" 
d="M623 906v-32q0 -24 -24 -24h-230q-24 0 -24 24v72q0 9 8 17.5t16 6.5l230 -40q11 -2 17.5 -8.5t6.5 -15.5zM926 608v-125q0 -78 -56 -136q-56 -56 -136 -56h-369q-24 0 -24 24v170q0 24 24 24h294q41 0 41 36q0 38 -41 38h-343q-20 0 -33.5 -14.5t-13.5 -34.5v-267
q0 -20 13.5 -34t33.5 -14h367q24 0 24 -24v-171q0 -24 -24 -24h-441q-78 0 -136 56q-56 58 -56 136v416q0 79 56 135q57 57 136 57h492q80 0 135 -57q57 -55 57 -135z" />
    <glyph glyph-name="eacute" unicode="&#xe9;" horiz-adv-x="961" 
d="M623 946v-72q0 -24 -24 -24h-230q-24 0 -24 24v32q0 9 6.5 15.5t17.5 8.5l230 40q8 2 16 -6.5t8 -17.5zM926 608v-125q0 -78 -56 -136q-56 -56 -136 -56h-369q-24 0 -24 24v170q0 24 24 24h294q41 0 41 36q0 38 -41 38h-343q-20 0 -33.5 -14.5t-13.5 -34.5v-267
q0 -20 13.5 -34t33.5 -14h367q24 0 24 -24v-171q0 -24 -24 -24h-441q-78 0 -136 56q-56 58 -56 136v416q0 79 56 135q57 57 136 57h492q80 0 135 -57q57 -55 57 -135z" />
    <glyph glyph-name="ecircumflex" unicode="&#xea;" horiz-adv-x="961" 
d="M644 896v-32q0 -9 -8 -17.5t-16 -6.5l-113 29q-6 2 -17 2t-17 -2l-115 -29q-8 -2 -16 6.5t-8 17.5v32q0 8 6.5 14t17.5 10l110 38q20 8 41 0l111 -38q11 -4 17.5 -10t6.5 -14zM926 608v-125q0 -78 -56 -136q-56 -56 -136 -56h-369q-24 0 -24 24v170q0 24 24 24h294
q41 0 41 36q0 38 -41 38h-343q-20 0 -33.5 -14.5t-13.5 -34.5v-267q0 -20 13.5 -34t33.5 -14h367q24 0 24 -24v-171q0 -24 -24 -24h-441q-78 0 -136 56q-56 58 -56 136v416q0 79 56 135q57 57 136 57h492q80 0 135 -57q57 -55 57 -135z" />
    <glyph glyph-name="edieresis" unicode="&#xeb;" horiz-adv-x="961" 
d="M657 936v-62q0 -24 -24 -24h-90q-24 0 -24 24v62q0 24 24 24h90q24 0 24 -24zM457 936v-62q0 -24 -24 -24h-90q-24 0 -24 24v62q0 24 24 24h90q24 0 24 -24zM926 608v-125q0 -78 -56 -136q-56 -56 -136 -56h-369q-24 0 -24 24v170q0 24 24 24h294q41 0 41 36q0 38 -41 38
h-343q-20 0 -33.5 -14.5t-13.5 -34.5v-267q0 -20 13.5 -34t33.5 -14h367q24 0 24 -24v-171q0 -24 -24 -24h-441q-78 0 -136 56q-56 58 -56 136v416q0 79 56 135q57 57 136 57h492q80 0 135 -57q57 -55 57 -135z" />
    <glyph glyph-name="igrave" unicode="&#xec;" horiz-adv-x="318" 
d="M268 776v-752q0 -24 -24 -24h-170q-24 0 -24 24v752q0 24 24 24h170q24 0 24 -24zM268 906v-32q0 -24 -24 -24h-230q-24 0 -24 24v72q0 9 8 17.5t16 6.5l230 -40q11 -2 17.5 -8.5t6.5 -15.5z" />
    <glyph glyph-name="iacute" unicode="&#xed;" horiz-adv-x="318" 
d="M268 776v-752q0 -24 -24 -24h-170q-24 0 -24 24v752q0 24 24 24h170q24 0 24 -24zM328 946v-72q0 -24 -24 -24h-230q-24 0 -24 24v32q0 9 6.5 15.5t17.5 8.5l230 40q8 2 16 -6.5t8 -17.5z" />
    <glyph glyph-name="icircumflex" unicode="&#xee;" horiz-adv-x="318" 
d="M268 776v-752q0 -24 -24 -24h-170q-24 0 -24 24v752q0 24 24 24h170q24 0 24 -24zM314 896v-32q0 -9 -8 -17.5t-16 -6.5l-113 29q-6 2 -17 2t-17 -2l-115 -29q-8 -2 -16 6.5t-8 17.5v32q0 8 6.5 14t17.5 10l110 38q20 8 41 0l111 -38q11 -4 17.5 -10t6.5 -14z" />
    <glyph glyph-name="idieresis" unicode="&#xef;" horiz-adv-x="318" 
d="M268 776v-752q0 -24 -24 -24h-170q-24 0 -24 24v752q0 24 24 24h170q24 0 24 -24zM328 936v-62q0 -24 -24 -24h-90q-24 0 -24 24v62q0 24 24 24h90q24 0 24 -24zM128 936v-62q0 -24 -24 -24h-90q-24 0 -24 24v62q0 24 24 24h90q24 0 24 -24z" />
    <glyph glyph-name="eth" unicode="&#xf0;" 
d="M702 319l12 -224l-361 3l-299 -13l-4 228zM378 520l4 -62l-17 -2l-42 -125l-86 2l-126 -2l-36 116l-22 6l-3 62l201 1l1 -55l-13 -4l10 -32l19 32l-7 3v56zM702 471l-87 2l-25 -81h-19l3 69l19 3l3 56l-208 -1l3 -61l14 -2l-1 -72l-15 -1l-1 -53l312 5zM215 133l180 -4
l-3 52h-15l-3 62l17 2l1 44l-94 -6l1 -44l12 -1l1 -33l-45 77l-187 2l1 -47l16 -5l3 -60l-12 -3v-54h27l72 6l-5 46l-18 7l-5 44zM537 132l146 -8l-3 136l-59 -4l-14 -72l-26 -3l1 62l15 3l-2 51l-193 -7l1 -44l20 -1l-2 -64l-17 -2v-49z" />
    <glyph glyph-name="ntilde" unicode="&#xf1;" horiz-adv-x="919" 
d="M883 423l1 -399q0 -24 -24 -24h-170q-24 0 -24 24v341q0 90 -64 154q-63 64 -153 64h-157q-24 0 -24 -24v-535q0 -24 -24 -24h-170q-24 0 -24 24v752q0 24 24 24h433q73 0 140 -29t122 -85q114 -114 114 -263zM612 936v-42q0 -10 -24 -24l-70 -38q-18 -11 -41 0l-81 36
q-18 8 -34 1l-75 -29q-11 -4 -17.5 -0.5t-6.5 14.5v42q0 11 24 24l70 38q19 10 41 0l81 -37q16 -7 34 0l75 29q11 4 17.5 0.5t6.5 -14.5z" />
    <glyph glyph-name="ograve" unicode="&#xf2;" horiz-adv-x="976" 
d="M926 608v-416q0 -79 -57 -136q-56 -56 -135 -56h-492q-78 0 -136 56q-56 58 -56 136v416q0 79 56 135q57 57 136 57h492q80 0 135 -57q57 -55 57 -135zM707 267v268q0 20 -14 34t-34 14h-342q-20 0 -34 -14t-14 -34v-268q0 -20 14 -34t34 -14h342q20 0 34 14t14 34z
M623 906v-32q0 -24 -24 -24h-230q-24 0 -24 24v72q0 9 8 17.5t16 6.5l230 -40q11 -2 17.5 -8.5t6.5 -15.5z" />
    <glyph glyph-name="oacute" unicode="&#xf3;" horiz-adv-x="976" 
d="M926 608v-416q0 -79 -57 -136q-56 -56 -135 -56h-492q-78 0 -136 56q-56 58 -56 136v416q0 79 56 135q57 57 136 57h492q80 0 135 -57q57 -55 57 -135zM707 267v268q0 20 -14 34t-34 14h-342q-20 0 -34 -14t-14 -34v-268q0 -20 14 -34t34 -14h342q20 0 34 14t14 34z
M623 946v-72q0 -24 -24 -24h-230q-24 0 -24 24v32q0 9 6.5 15.5t17.5 8.5l230 40q8 2 16 -6.5t8 -17.5z" />
    <glyph glyph-name="ocircumflex" unicode="&#xf4;" horiz-adv-x="976" 
d="M926 608v-416q0 -79 -57 -136q-56 -56 -135 -56h-492q-78 0 -136 56q-56 58 -56 136v416q0 79 56 135q57 57 136 57h492q80 0 135 -57q57 -55 57 -135zM707 267v268q0 20 -14 34t-34 14h-342q-20 0 -34 -14t-14 -34v-268q0 -20 14 -34t34 -14h342q20 0 34 14t14 34z
M644 896v-32q0 -9 -8 -17.5t-16 -6.5l-113 29q-6 2 -17 2t-17 -2l-115 -29q-8 -2 -16 6.5t-8 17.5v32q0 8 6.5 14t17.5 10l110 38q20 8 41 0l111 -38q11 -4 17.5 -10t6.5 -14z" />
    <glyph glyph-name="otilde" unicode="&#xf5;" horiz-adv-x="976" 
d="M926 608v-416q0 -79 -57 -136q-56 -56 -135 -56h-492q-78 0 -136 56q-56 58 -56 136v416q0 79 56 135q57 57 136 57h492q80 0 135 -57q57 -55 57 -135zM707 267v268q0 20 -14 34t-34 14h-342q-20 0 -34 -14t-14 -34v-268q0 -20 14 -34t34 -14h342q20 0 34 14t14 34z
M662 936v-42q0 -10 -24 -24l-70 -38q-18 -11 -41 0l-81 36q-18 8 -34 1l-75 -29q-11 -4 -17.5 -0.5t-6.5 14.5v42q0 11 24 24l70 38q19 10 41 0l81 -37q16 -7 34 0l75 29q11 4 17.5 0.5t6.5 -14.5z" />
    <glyph glyph-name="odieresis" unicode="&#xf6;" horiz-adv-x="976" 
d="M926 608v-416q0 -79 -57 -136q-56 -56 -135 -56h-492q-78 0 -136 56q-56 58 -56 136v416q0 79 56 135q57 57 136 57h492q80 0 135 -57q57 -55 57 -135zM707 267v268q0 20 -14 34t-34 14h-342q-20 0 -34 -14t-14 -34v-268q0 -20 14 -34t34 -14h342q20 0 34 14t14 34z
M657 936v-62q0 -24 -24 -24h-90q-24 0 -24 24v62q0 24 24 24h90q24 0 24 -24zM457 936v-62q0 -24 -24 -24h-90q-24 0 -24 24v62q0 24 24 24h90q24 0 24 -24z" />
    <glyph glyph-name="divide" unicode="&#xf7;" 
d="M702 319l12 -224l-361 3l-299 -13l-4 228zM378 520l4 -62l-17 -2l-42 -125l-86 2l-126 -2l-36 116l-22 6l-3 62l201 1l1 -55l-13 -4l10 -32l19 32l-7 3v56zM702 471l-87 2l-25 -81h-19l3 69l19 3l3 56l-208 -1l3 -61l14 -2l-1 -72l-15 -1l-1 -53l312 5zM215 133l180 -4
l-3 52h-15l-3 62l17 2l1 44l-94 -6l1 -44l12 -1l1 -33l-45 77l-187 2l1 -47l16 -5l3 -60l-12 -3v-54h27l72 6l-5 46l-18 7l-5 44zM537 132l146 -8l-3 136l-59 -4l-14 -72l-26 -3l1 62l15 3l-2 51l-193 -7l1 -44l20 -1l-2 -64l-17 -2v-49z" />
    <glyph glyph-name="oslash" unicode="&#xf8;" horiz-adv-x="976" 
d="M926 608v-416q0 -79 -57 -136q-56 -56 -135 -56h-217q-18 0 -24 -25q-2 -12 -8.5 -18.5t-15.5 -6.5h-160q-9 0 -17.5 6.5t-7.5 13.5l1 6q2 9 -6 16.5t-18 7.5h-19q-78 0 -136 56q-56 58 -56 136v416q0 79 56 135q57 57 136 57h217q9 0 15 6.5t8 18.5q6 25 25 25h160
q9 0 17.5 -6.5t7.5 -13.5l-1 -6q-2 -9 6 -16.5t18 -7.5h19q80 0 135 -57q57 -55 57 -135zM715 254v294q0 21 -16 37t-37 16q-13 0 -21.5 -7t-11.5 -19l-81 -343q-2 -10 6.5 -20.5t19.5 -10.5h88q21 0 37 16t16 37zM347 227l81 343q2 10 -6.5 20.5t-19.5 10.5h-88
q-21 0 -37 -16t-16 -37v-294q0 -21 16 -37t37 -16q13 0 21.5 7t11.5 19z" />
    <glyph glyph-name="ugrave" unicode="&#xf9;" horiz-adv-x="976" 
d="M926 776v-584q0 -79 -57 -136q-56 -56 -135 -56h-492q-78 0 -136 56q-56 56 -56 136l1 584q0 24 24 24h170q24 0 24 -24v-509q0 -20 14 -34t34 -14h342q20 0 34 14t14 34v507q0 12 6.5 19t17.5 7h171q24 0 24 -24zM623 896v-32q0 -24 -24 -24h-230q-24 0 -24 24v72
q0 9 8 17.5t16 6.5l230 -40q11 -2 17.5 -8.5t6.5 -15.5z" />
    <glyph glyph-name="uacute" unicode="&#xfa;" horiz-adv-x="976" 
d="M926 776v-584q0 -79 -57 -136q-56 -56 -135 -56h-492q-78 0 -136 56q-56 56 -56 136l1 584q0 24 24 24h170q24 0 24 -24v-509q0 -20 14 -34t34 -14h342q20 0 34 14t14 34v507q0 12 6.5 19t17.5 7h171q24 0 24 -24zM623 946v-72q0 -24 -24 -24h-230q-24 0 -24 24v32
q0 9 6.5 15.5t17.5 8.5l230 40q8 2 16 -6.5t8 -17.5z" />
    <glyph glyph-name="ucircumflex" unicode="&#xfb;" horiz-adv-x="976" 
d="M926 776v-584q0 -79 -57 -136q-56 -56 -135 -56h-492q-78 0 -136 56q-56 56 -56 136l1 584q0 24 24 24h170q24 0 24 -24v-509q0 -20 14 -34t34 -14h342q20 0 34 14t14 34v507q0 12 6.5 19t17.5 7h171q24 0 24 -24zM644 886v-32q0 -9 -8 -17.5t-16 -6.5l-113 29
q-6 2 -17 2t-17 -2l-115 -29q-8 -2 -16 6.5t-8 17.5v32q0 8 6.5 14t17.5 10l110 38q20 8 41 0l111 -38q11 -4 17.5 -10t6.5 -14z" />
    <glyph glyph-name="udieresis" unicode="&#xfc;" horiz-adv-x="976" 
d="M926 776v-584q0 -79 -57 -136q-56 -56 -135 -56h-492q-78 0 -136 56q-56 56 -56 136l1 584q0 24 24 24h170q24 0 24 -24v-509q0 -20 14 -34t34 -14h342q20 0 34 14t14 34v507q0 12 6.5 19t17.5 7h171q24 0 24 -24zM657 926v-62q0 -24 -24 -24h-90q-24 0 -24 24v62
q0 24 24 24h90q24 0 24 -24zM457 926v-62q0 -24 -24 -24h-90q-24 0 -24 24v62q0 24 24 24h90q24 0 24 -24z" />
    <glyph glyph-name="yacute" unicode="&#xfd;" horiz-adv-x="854" 
d="M829 776v-171q0 -134 -73 -237q-75 -106 -197 -132q-23 -5 -23 -22v-190q0 -24 -24 -24h-170q-24 0 -24 24v188q0 18 -22 24q-122 33 -197 135q-74 103 -74 234v171q0 24 24 24h169q24 0 24 -24v-112q0 -95 48 -154q50 -63 137 -63q88 0 137 63q48 59 48 154v112
q0 24 24 24h169q24 0 24 -24zM566 946v-72q0 -24 -24 -24h-230q-24 0 -24 24v32q0 9 6.5 15.5t17.5 8.5l230 40q8 2 16 -6.5t8 -17.5z" />
    <glyph glyph-name="thorn" unicode="&#xfe;" 
d="M702 319l12 -224l-361 3l-299 -13l-4 228zM378 520l4 -62l-17 -2l-42 -125l-86 2l-126 -2l-36 116l-22 6l-3 62l201 1l1 -55l-13 -4l10 -32l19 32l-7 3v56zM702 471l-87 2l-25 -81h-19l3 69l19 3l3 56l-208 -1l3 -61l14 -2l-1 -72l-15 -1l-1 -53l312 5zM215 133l180 -4
l-3 52h-15l-3 62l17 2l1 44l-94 -6l1 -44l12 -1l1 -33l-45 77l-187 2l1 -47l16 -5l3 -60l-12 -3v-54h27l72 6l-5 46l-18 7l-5 44zM537 132l146 -8l-3 136l-59 -4l-14 -72l-26 -3l1 62l15 3l-2 51l-193 -7l1 -44l20 -1l-2 -64l-17 -2v-49z" />
    <glyph glyph-name="ydieresis" unicode="&#xff;" horiz-adv-x="854" 
d="M829 776v-171q0 -134 -73 -237q-75 -106 -197 -132q-23 -5 -23 -22v-190q0 -24 -24 -24h-170q-24 0 -24 24v188q0 18 -22 24q-122 33 -197 135q-74 103 -74 234v171q0 24 24 24h169q24 0 24 -24v-112q0 -95 48 -154q50 -63 137 -63q88 0 137 63q48 59 48 154v112
q0 24 24 24h169q24 0 24 -24zM597 916v-62q0 -24 -24 -24h-90q-24 0 -24 24v62q0 24 24 24h90q24 0 24 -24zM397 916v-62q0 -24 -24 -24h-90q-24 0 -24 24v62q0 24 24 24h90q24 0 24 -24z" />
    <glyph glyph-name="dotlessi" unicode="&#x131;" horiz-adv-x="318" 
d="M268 776v-752q0 -24 -24 -24h-170q-24 0 -24 24v752q0 24 24 24h170q24 0 24 -24z" />
    <glyph glyph-name="Lslash" unicode="&#x141;" 
d="M702 319l12 -224l-361 3l-299 -13l-4 228zM378 520l4 -62l-17 -2l-42 -125l-86 2l-126 -2l-36 116l-22 6l-3 62l201 1l1 -55l-13 -4l10 -32l19 32l-7 3v56zM702 471l-87 2l-25 -81h-19l3 69l19 3l3 56l-208 -1l3 -61l14 -2l-1 -72l-15 -1l-1 -53l312 5zM215 133l180 -4
l-3 52h-15l-3 62l17 2l1 44l-94 -6l1 -44l12 -1l1 -33l-45 77l-187 2l1 -47l16 -5l3 -60l-12 -3v-54h27l72 6l-5 46l-18 7l-5 44zM537 132l146 -8l-3 136l-59 -4l-14 -72l-26 -3l1 62l15 3l-2 51l-193 -7l1 -44l20 -1l-2 -64l-17 -2v-49z" />
    <glyph glyph-name="lslash" unicode="&#x142;" 
d="M702 319l12 -224l-361 3l-299 -13l-4 228zM378 520l4 -62l-17 -2l-42 -125l-86 2l-126 -2l-36 116l-22 6l-3 62l201 1l1 -55l-13 -4l10 -32l19 32l-7 3v56zM702 471l-87 2l-25 -81h-19l3 69l19 3l3 56l-208 -1l3 -61l14 -2l-1 -72l-15 -1l-1 -53l312 5zM215 133l180 -4
l-3 52h-15l-3 62l17 2l1 44l-94 -6l1 -44l12 -1l1 -33l-45 77l-187 2l1 -47l16 -5l3 -60l-12 -3v-54h27l72 6l-5 46l-18 7l-5 44zM537 132l146 -8l-3 136l-59 -4l-14 -72l-26 -3l1 62l15 3l-2 51l-193 -7l1 -44l20 -1l-2 -64l-17 -2v-49z" />
    <glyph glyph-name="OE" unicode="&#x152;" horiz-adv-x="1361" 
d="M1326 195v-171q0 -24 -24 -24h-503q-15 0 -42 9q-26 10 -40 10q-15 0 -41 -10q-27 -9 -42 -9h-392q-78 0 -136 56q-56 58 -56 136v416q0 79 56 135q57 57 136 57h392q16 0 42 -10q27 -9 41 -9q13 0 40 9q26 10 42 10h503q24 0 24 -24v-169q0 -24 -24 -24h-435
q-42 0 -42 -37t42 -37h292q24 0 24 -24v-170q0 -24 -24 -24h-292q-42 0 -42 -37q0 -35 42 -35h435q24 0 24 -24zM607 267v268q0 20 -14 34t-34 14h-242q-20 0 -34 -14t-14 -34v-268q0 -20 14 -34t34 -14h242q20 0 34 14t14 34z" />
    <glyph glyph-name="oe" unicode="&#x153;" horiz-adv-x="1398" 
d="M1383 608v-125q0 -78 -56 -136q-56 -56 -136 -56h-269q-24 0 -24 24v170q0 24 24 24h194q41 0 41 36q0 38 -41 38h-243q-20 0 -33.5 -14.5t-13.5 -34.5v-267q0 -20 13.5 -34t33.5 -14h267q24 0 24 -24v-171q0 -24 -24 -24h-341q-15 0 -42 9q-26 10 -40 10q-15 0 -41 -10
q-27 -9 -42 -9h-392q-78 0 -136 56q-56 58 -56 136v416q0 79 56 135q57 57 136 57h392q16 0 42 -10q27 -9 41 -9q13 0 40 9q26 10 42 10h392q80 0 135 -57q57 -55 57 -135zM607 267v268q0 20 -14 34t-34 14h-242q-20 0 -34 -14t-14 -34v-268q0 -20 14 -34t34 -14h242
q20 0 34 14t14 34z" />
    <glyph glyph-name="Scaron" unicode="&#x160;" horiz-adv-x="926" 
d="M911 317v-125q0 -79 -57 -136q-56 -56 -135 -56h-660q-24 0 -24 24v171q0 24 24 24h585q42 0 42 35q0 37 -42 37h-417q-78 0 -136 56q-56 58 -56 136v125q0 79 56 135q57 57 136 57h441q24 0 24 -24v-170q0 -24 -24 -24h-366q-42 0 -42 -37q0 -36 42 -36h417
q80 0 135 -57q57 -55 57 -135zM618 946v-32q0 -16 -24 -24l-111 -38q-21 -8 -41 0l-110 38q-24 8 -24 24v32q0 9 8 17.5t16 6.5l115 -29q6 -2 17 -2t17 2l113 29q8 2 16 -6.5t8 -17.5z" />
    <glyph glyph-name="scaron" unicode="&#x161;" horiz-adv-x="926" 
d="M911 317v-125q0 -79 -57 -136q-56 -56 -135 -56h-660q-24 0 -24 24v171q0 24 24 24h585q42 0 42 35q0 37 -42 37h-417q-78 0 -136 56q-56 58 -56 136v125q0 79 56 135q57 57 136 57h441q24 0 24 -24v-170q0 -24 -24 -24h-366q-42 0 -42 -37q0 -36 42 -36h417
q80 0 135 -57q57 -55 57 -135zM618 946v-32q0 -16 -24 -24l-111 -38q-21 -8 -41 0l-110 38q-24 8 -24 24v32q0 9 8 17.5t16 6.5l115 -29q6 -2 17 -2t17 2l113 29q8 2 16 -6.5t8 -17.5z" />
    <glyph glyph-name="Ydieresis" unicode="&#x178;" horiz-adv-x="854" 
d="M829 776v-171q0 -134 -73 -237q-75 -106 -197 -132q-23 -5 -23 -22v-190q0 -24 -24 -24h-170q-24 0 -24 24v188q0 18 -22 24q-122 33 -197 135q-74 103 -74 234v171q0 24 24 24h169q24 0 24 -24v-112q0 -95 48 -154q50 -63 137 -63q88 0 137 63q48 59 48 154v112
q0 24 24 24h169q24 0 24 -24zM597 916v-62q0 -24 -24 -24h-90q-24 0 -24 24v62q0 24 24 24h90q24 0 24 -24zM397 916v-62q0 -24 -24 -24h-90q-24 0 -24 24v62q0 24 24 24h90q24 0 24 -24z" />
    <glyph glyph-name="Zcaron" unicode="&#x17d;" horiz-adv-x="976" 
d="M926 776v-293q0 -79 -57 -136q-56 -56 -135 -56h-417q-42 0 -42 -37q0 -35 42 -35h535q24 0 24 -24v-171q0 -24 -24 -24h-778q-24 0 -24 24v293q0 79 56 135q57 57 136 57h417q42 0 42 36q0 38 -42 38h-517q-24 0 -24 24v169q0 24 24 24h760q24 0 24 -24zM643 946v-32
q0 -16 -24 -24l-111 -38q-21 -8 -41 0l-110 38q-24 8 -24 24v32q0 9 8 17.5t16 6.5l115 -29q6 -2 17 -2t17 2l113 29q8 2 16 -6.5t8 -17.5z" />
    <glyph glyph-name="zcaron" unicode="&#x17e;" horiz-adv-x="976" 
d="M926 776v-293q0 -79 -57 -136q-56 -56 -135 -56h-417q-42 0 -42 -37q0 -35 42 -35h535q24 0 24 -24v-171q0 -24 -24 -24h-778q-24 0 -24 24v293q0 79 56 135q57 57 136 57h417q42 0 42 36q0 38 -42 38h-517q-24 0 -24 24v169q0 24 24 24h760q24 0 24 -24zM643 946v-32
q0 -16 -24 -24l-111 -38q-21 -8 -41 0l-110 38q-24 8 -24 24v32q0 9 8 17.5t16 6.5l115 -29q6 -2 17 -2t17 2l113 29q8 2 16 -6.5t8 -17.5z" />
    <glyph glyph-name="florin" unicode="&#x192;" 
d="M702 319l12 -224l-361 3l-299 -13l-4 228zM378 520l4 -62l-17 -2l-42 -125l-86 2l-126 -2l-36 116l-22 6l-3 62l201 1l1 -55l-13 -4l10 -32l19 32l-7 3v56zM702 471l-87 2l-25 -81h-19l3 69l19 3l3 56l-208 -1l3 -61l14 -2l-1 -72l-15 -1l-1 -53l312 5zM215 133l180 -4
l-3 52h-15l-3 62l17 2l1 44l-94 -6l1 -44l12 -1l1 -33l-45 77l-187 2l1 -47l16 -5l3 -60l-12 -3v-54h27l72 6l-5 46l-18 7l-5 44zM537 132l146 -8l-3 136l-59 -4l-14 -72l-26 -3l1 62l15 3l-2 51l-193 -7l1 -44l20 -1l-2 -64l-17 -2v-49z" />
    <glyph glyph-name="circumflex" unicode="&#x2c6;" horiz-adv-x="978" 
d="M644 906v-32q0 -9 -8 -17.5t-16 -6.5l-113 29q-6 2 -17 2t-17 -2l-115 -29q-8 -2 -16 6.5t-8 17.5v32q0 8 6.5 14t17.5 10l110 38q20 8 41 0l111 -38q11 -4 17.5 -10t6.5 -14z" />
    <glyph glyph-name="caron" unicode="&#x2c7;" horiz-adv-x="978" 
d="M644 946v-32q0 -16 -24 -24l-111 -38q-21 -8 -41 0l-110 38q-24 8 -24 24v32q0 9 8 17.5t16 6.5l115 -29q6 -2 17 -2t17 2l113 29q8 2 16 -6.5t8 -17.5z" />
    <glyph glyph-name="tilde" unicode="&#x2dc;" horiz-adv-x="978" 
d="M662 936v-42q0 -10 -24 -24l-70 -38q-18 -11 -41 0l-81 36q-18 8 -34 1l-75 -29q-11 -4 -17.5 -0.5t-6.5 14.5v42q0 11 24 24l70 38q19 10 41 0l81 -37q16 -7 34 0l75 29q11 4 17.5 0.5t6.5 -14.5z" />
    <glyph glyph-name="Delta" unicode="&#x394;" 
d="M702 319l12 -224l-361 3l-299 -13l-4 228zM378 520l4 -62l-17 -2l-42 -125l-86 2l-126 -2l-36 116l-22 6l-3 62l201 1l1 -55l-13 -4l10 -32l19 32l-7 3v56zM702 471l-87 2l-25 -81h-19l3 69l19 3l3 56l-208 -1l3 -61l14 -2l-1 -72l-15 -1l-1 -53l312 5zM215 133l180 -4
l-3 52h-15l-3 62l17 2l1 44l-94 -6l1 -44l12 -1l1 -33l-45 77l-187 2l1 -47l16 -5l3 -60l-12 -3v-54h27l72 6l-5 46l-18 7l-5 44zM537 132l146 -8l-3 136l-59 -4l-14 -72l-26 -3l1 62l15 3l-2 51l-193 -7l1 -44l20 -1l-2 -64l-17 -2v-49z" />
    <glyph glyph-name="Delta" unicode="&#x2206;" 
d="M702 319l12 -224l-361 3l-299 -13l-4 228zM378 520l4 -62l-17 -2l-42 -125l-86 2l-126 -2l-36 116l-22 6l-3 62l201 1l1 -55l-13 -4l10 -32l19 32l-7 3v56zM702 471l-87 2l-25 -81h-19l3 69l19 3l3 56l-208 -1l3 -61l14 -2l-1 -72l-15 -1l-1 -53l312 5zM215 133l180 -4
l-3 52h-15l-3 62l17 2l1 44l-94 -6l1 -44l12 -1l1 -33l-45 77l-187 2l1 -47l16 -5l3 -60l-12 -3v-54h27l72 6l-5 46l-18 7l-5 44zM537 132l146 -8l-3 136l-59 -4l-14 -72l-26 -3l1 62l15 3l-2 51l-193 -7l1 -44l20 -1l-2 -64l-17 -2v-49z" />
    <glyph glyph-name="Omega" unicode="&#x3a9;" 
d="M702 319l12 -224l-361 3l-299 -13l-4 228zM378 520l4 -62l-17 -2l-42 -125l-86 2l-126 -2l-36 116l-22 6l-3 62l201 1l1 -55l-13 -4l10 -32l19 32l-7 3v56zM702 471l-87 2l-25 -81h-19l3 69l19 3l3 56l-208 -1l3 -61l14 -2l-1 -72l-15 -1l-1 -53l312 5zM215 133l180 -4
l-3 52h-15l-3 62l17 2l1 44l-94 -6l1 -44l12 -1l1 -33l-45 77l-187 2l1 -47l16 -5l3 -60l-12 -3v-54h27l72 6l-5 46l-18 7l-5 44zM537 132l146 -8l-3 136l-59 -4l-14 -72l-26 -3l1 62l15 3l-2 51l-193 -7l1 -44l20 -1l-2 -64l-17 -2v-49z" />
    <glyph glyph-name="Omega" unicode="&#x2126;" 
d="M702 319l12 -224l-361 3l-299 -13l-4 228zM378 520l4 -62l-17 -2l-42 -125l-86 2l-126 -2l-36 116l-22 6l-3 62l201 1l1 -55l-13 -4l10 -32l19 32l-7 3v56zM702 471l-87 2l-25 -81h-19l3 69l19 3l3 56l-208 -1l3 -61l14 -2l-1 -72l-15 -1l-1 -53l312 5zM215 133l180 -4
l-3 52h-15l-3 62l17 2l1 44l-94 -6l1 -44l12 -1l1 -33l-45 77l-187 2l1 -47l16 -5l3 -60l-12 -3v-54h27l72 6l-5 46l-18 7l-5 44zM537 132l146 -8l-3 136l-59 -4l-14 -72l-26 -3l1 62l15 3l-2 51l-193 -7l1 -44l20 -1l-2 -64l-17 -2v-49z" />
    <glyph glyph-name="pi" unicode="&#x3c0;" 
d="M702 319l12 -224l-361 3l-299 -13l-4 228zM378 520l4 -62l-17 -2l-42 -125l-86 2l-126 -2l-36 116l-22 6l-3 62l201 1l1 -55l-13 -4l10 -32l19 32l-7 3v56zM702 471l-87 2l-25 -81h-19l3 69l19 3l3 56l-208 -1l3 -61l14 -2l-1 -72l-15 -1l-1 -53l312 5zM215 133l180 -4
l-3 52h-15l-3 62l17 2l1 44l-94 -6l1 -44l12 -1l1 -33l-45 77l-187 2l1 -47l16 -5l3 -60l-12 -3v-54h27l72 6l-5 46l-18 7l-5 44zM537 132l146 -8l-3 136l-59 -4l-14 -72l-26 -3l1 62l15 3l-2 51l-193 -7l1 -44l20 -1l-2 -64l-17 -2v-49z" />
    <glyph glyph-name="endash" unicode="&#x2013;" horiz-adv-x="638" 
d="M603 476v-152q0 -24 -24 -24h-520q-24 0 -24 24v152q0 24 24 24h520q24 0 24 -24z" />
    <glyph glyph-name="emdash" unicode="&#x2014;" horiz-adv-x="838" 
d="M803 476v-152q0 -24 -24 -24h-720q-24 0 -24 24v152q0 24 24 24h720q24 0 24 -24z" />
    <glyph glyph-name="quoteleft" unicode="&#x2018;" horiz-adv-x="244" 
d="M209 597v-18q0 -19 -19 -19h-59q-18 0 -36 8t-31 21t-21 31t-8 36v125q0 19 19 19h136q19 0 19 -19v-122q0 -19 -19 -19h-20q-12 0 -12 -12t12 -12h20q19 0 19 -19z" />
    <glyph glyph-name="quoteright" unicode="&#x2019;" horiz-adv-x="244" 
d="M209 781v-125q0 -18 -8 -36t-21 -31t-31 -21t-36 -8h-59q-19 0 -19 19v18q0 19 19 19h20q12 0 12 12t-12 12h-20q-19 0 -19 19v122q0 19 19 19h136q19 0 19 -19z" />
    <glyph glyph-name="quotesinglbase" unicode="&#x201a;" 
d="M702 319l12 -224l-361 3l-299 -13l-4 228zM378 520l4 -62l-17 -2l-42 -125l-86 2l-126 -2l-36 116l-22 6l-3 62l201 1l1 -55l-13 -4l10 -32l19 32l-7 3v56zM702 471l-87 2l-25 -81h-19l3 69l19 3l3 56l-208 -1l3 -61l14 -2l-1 -72l-15 -1l-1 -53l312 5zM215 133l180 -4
l-3 52h-15l-3 62l17 2l1 44l-94 -6l1 -44l12 -1l1 -33l-45 77l-187 2l1 -47l16 -5l3 -60l-12 -3v-54h27l72 6l-5 46l-18 7l-5 44zM537 132l146 -8l-3 136l-59 -4l-14 -72l-26 -3l1 62l15 3l-2 51l-193 -7l1 -44l20 -1l-2 -64l-17 -2v-49z" />
    <glyph glyph-name="quotedblleft" unicode="&#x201c;" horiz-adv-x="444" 
d="M409 597v-18q0 -19 -19 -19h-59q-18 0 -36 8t-31 21t-21 31t-8 36v125q0 19 19 19h136q19 0 19 -19v-122q0 -19 -19 -19h-20q-12 0 -12 -12t12 -12h20q19 0 19 -19zM209 597v-18q0 -19 -19 -19h-59q-18 0 -36 8t-31 21t-21 31t-8 36v125q0 19 19 19h136q19 0 19 -19v-122
q0 -19 -19 -19h-20q-12 0 -12 -12t12 -12h20q19 0 19 -19z" />
    <glyph glyph-name="quotedblright" unicode="&#x201d;" horiz-adv-x="444" 
d="M409 781v-125q0 -18 -8 -36t-21 -31t-31 -21t-36 -8h-59q-19 0 -19 19v18q0 19 19 19h20q12 0 12 12t-12 12h-20q-19 0 -19 19v122q0 19 19 19h136q19 0 19 -19zM209 781v-125q0 -18 -8 -36t-21 -31t-31 -21t-36 -8h-59q-19 0 -19 19v18q0 19 19 19h20q12 0 12 12t-12 12
h-20q-19 0 -19 19v122q0 19 19 19h136q19 0 19 -19z" />
    <glyph glyph-name="quotedblbase" unicode="&#x201e;" 
d="M702 319l12 -224l-361 3l-299 -13l-4 228zM378 520l4 -62l-17 -2l-42 -125l-86 2l-126 -2l-36 116l-22 6l-3 62l201 1l1 -55l-13 -4l10 -32l19 32l-7 3v56zM702 471l-87 2l-25 -81h-19l3 69l19 3l3 56l-208 -1l3 -61l14 -2l-1 -72l-15 -1l-1 -53l312 5zM215 133l180 -4
l-3 52h-15l-3 62l17 2l1 44l-94 -6l1 -44l12 -1l1 -33l-45 77l-187 2l1 -47l16 -5l3 -60l-12 -3v-54h27l72 6l-5 46l-18 7l-5 44zM537 132l146 -8l-3 136l-59 -4l-14 -72l-26 -3l1 62l15 3l-2 51l-193 -7l1 -44l20 -1l-2 -64l-17 -2v-49z" />
    <glyph glyph-name="dagger" unicode="&#x2020;" horiz-adv-x="628" 
d="M593 544v-152q0 -24 -24 -24h-131q-24 0 -24 -24v-272q0 -24 -24 -24h-152q-24 0 -24 24v272q0 24 -24 24h-131q-24 0 -24 24v152q0 24 24 24h131q24 0 24 24v141q0 24 24 24h152q24 0 24 -24v-141q0 -24 24 -24h131q24 0 24 -24z" />
    <glyph glyph-name="daggerdbl" unicode="&#x2021;" 
d="M702 319l12 -224l-361 3l-299 -13l-4 228zM378 520l4 -62l-17 -2l-42 -125l-86 2l-126 -2l-36 116l-22 6l-3 62l201 1l1 -55l-13 -4l10 -32l19 32l-7 3v56zM702 471l-87 2l-25 -81h-19l3 69l19 3l3 56l-208 -1l3 -61l14 -2l-1 -72l-15 -1l-1 -53l312 5zM215 133l180 -4
l-3 52h-15l-3 62l17 2l1 44l-94 -6l1 -44l12 -1l1 -33l-45 77l-187 2l1 -47l16 -5l3 -60l-12 -3v-54h27l72 6l-5 46l-18 7l-5 44zM537 132l146 -8l-3 136l-59 -4l-14 -72l-26 -3l1 62l15 3l-2 51l-193 -7l1 -44l20 -1l-2 -64l-17 -2v-49z" />
    <glyph glyph-name="bullet" unicode="&#x2022;" horiz-adv-x="521" 
d="M471 446v-92q0 -64 -45 -109t-109 -45h-113q-64 0 -109 45t-45 109v92q0 64 45 109t109 45h113q64 0 109 -45t45 -109z" />
    <glyph glyph-name="ellipsis" unicode="&#x2026;" 
d="M702 319l12 -224l-361 3l-299 -13l-4 228zM378 520l4 -62l-17 -2l-42 -125l-86 2l-126 -2l-36 116l-22 6l-3 62l201 1l1 -55l-13 -4l10 -32l19 32l-7 3v56zM702 471l-87 2l-25 -81h-19l3 69l19 3l3 56l-208 -1l3 -61l14 -2l-1 -72l-15 -1l-1 -53l312 5zM215 133l180 -4
l-3 52h-15l-3 62l17 2l1 44l-94 -6l1 -44l12 -1l1 -33l-45 77l-187 2l1 -47l16 -5l3 -60l-12 -3v-54h27l72 6l-5 46l-18 7l-5 44zM537 132l146 -8l-3 136l-59 -4l-14 -72l-26 -3l1 62l15 3l-2 51l-193 -7l1 -44l20 -1l-2 -64l-17 -2v-49z" />
    <glyph glyph-name="perthousand" unicode="&#x2030;" 
d="M702 319l12 -224l-361 3l-299 -13l-4 228zM378 520l4 -62l-17 -2l-42 -125l-86 2l-126 -2l-36 116l-22 6l-3 62l201 1l1 -55l-13 -4l10 -32l19 32l-7 3v56zM702 471l-87 2l-25 -81h-19l3 69l19 3l3 56l-208 -1l3 -61l14 -2l-1 -72l-15 -1l-1 -53l312 5zM215 133l180 -4
l-3 52h-15l-3 62l17 2l1 44l-94 -6l1 -44l12 -1l1 -33l-45 77l-187 2l1 -47l16 -5l3 -60l-12 -3v-54h27l72 6l-5 46l-18 7l-5 44zM537 132l146 -8l-3 136l-59 -4l-14 -72l-26 -3l1 62l15 3l-2 51l-193 -7l1 -44l20 -1l-2 -64l-17 -2v-49z" />
    <glyph glyph-name="guilsinglleft" unicode="&#x2039;" 
d="M702 319l12 -224l-361 3l-299 -13l-4 228zM378 520l4 -62l-17 -2l-42 -125l-86 2l-126 -2l-36 116l-22 6l-3 62l201 1l1 -55l-13 -4l10 -32l19 32l-7 3v56zM702 471l-87 2l-25 -81h-19l3 69l19 3l3 56l-208 -1l3 -61l14 -2l-1 -72l-15 -1l-1 -53l312 5zM215 133l180 -4
l-3 52h-15l-3 62l17 2l1 44l-94 -6l1 -44l12 -1l1 -33l-45 77l-187 2l1 -47l16 -5l3 -60l-12 -3v-54h27l72 6l-5 46l-18 7l-5 44zM537 132l146 -8l-3 136l-59 -4l-14 -72l-26 -3l1 62l15 3l-2 51l-193 -7l1 -44l20 -1l-2 -64l-17 -2v-49z" />
    <glyph glyph-name="guilsinglright" unicode="&#x203a;" 
d="M702 319l12 -224l-361 3l-299 -13l-4 228zM378 520l4 -62l-17 -2l-42 -125l-86 2l-126 -2l-36 116l-22 6l-3 62l201 1l1 -55l-13 -4l10 -32l19 32l-7 3v56zM702 471l-87 2l-25 -81h-19l3 69l19 3l3 56l-208 -1l3 -61l14 -2l-1 -72l-15 -1l-1 -53l312 5zM215 133l180 -4
l-3 52h-15l-3 62l17 2l1 44l-94 -6l1 -44l12 -1l1 -33l-45 77l-187 2l1 -47l16 -5l3 -60l-12 -3v-54h27l72 6l-5 46l-18 7l-5 44zM537 132l146 -8l-3 136l-59 -4l-14 -72l-26 -3l1 62l15 3l-2 51l-193 -7l1 -44l20 -1l-2 -64l-17 -2v-49z" />
    <glyph glyph-name="fraction" unicode="&#x2044;" horiz-adv-x="479" 
d="M444 830l-1 -4l-200 -852q-6 -24 -24 -24h-160q-11 0 -17.5 5.5t-6.5 14.5v4l200 852q6 24 24 24h160q25 0 25 -20z" />
    <glyph glyph-name="Euro" unicode="&#x20ac;" horiz-adv-x="876" 
d="M826 195v-171q0 -24 -24 -24h-451q-78 0 -136 56q-56 58 -56 136v74q0 25 -24 25h-61q-24 0 -24 24v170q0 24 24 24h61q24 0 24 25v74q0 79 56 135q57 57 136 57h451q24 0 24 -24v-169q0 -24 -24 -24h-377q-20 0 -34 -14.5t-14 -34.5q0 -25 22 -25h183q24 0 24 -24v-170
q0 -24 -24 -24h-183q-22 0 -22 -25q0 -20 14 -33.5t34 -13.5h377q24 0 24 -24z" />
    <glyph glyph-name="trademark" unicode="&#x2122;" 
d="M702 319l12 -224l-361 3l-299 -13l-4 228zM378 520l4 -62l-17 -2l-42 -125l-86 2l-126 -2l-36 116l-22 6l-3 62l201 1l1 -55l-13 -4l10 -32l19 32l-7 3v56zM702 471l-87 2l-25 -81h-19l3 69l19 3l3 56l-208 -1l3 -61l14 -2l-1 -72l-15 -1l-1 -53l312 5zM215 133l180 -4
l-3 52h-15l-3 62l17 2l1 44l-94 -6l1 -44l12 -1l1 -33l-45 77l-187 2l1 -47l16 -5l3 -60l-12 -3v-54h27l72 6l-5 46l-18 7l-5 44zM537 132l146 -8l-3 136l-59 -4l-14 -72l-26 -3l1 62l15 3l-2 51l-193 -7l1 -44l20 -1l-2 -64l-17 -2v-49z" />
    <glyph glyph-name="partialdiff" unicode="&#x2202;" 
d="M702 319l12 -224l-361 3l-299 -13l-4 228zM378 520l4 -62l-17 -2l-42 -125l-86 2l-126 -2l-36 116l-22 6l-3 62l201 1l1 -55l-13 -4l10 -32l19 32l-7 3v56zM702 471l-87 2l-25 -81h-19l3 69l19 3l3 56l-208 -1l3 -61l14 -2l-1 -72l-15 -1l-1 -53l312 5zM215 133l180 -4
l-3 52h-15l-3 62l17 2l1 44l-94 -6l1 -44l12 -1l1 -33l-45 77l-187 2l1 -47l16 -5l3 -60l-12 -3v-54h27l72 6l-5 46l-18 7l-5 44zM537 132l146 -8l-3 136l-59 -4l-14 -72l-26 -3l1 62l15 3l-2 51l-193 -7l1 -44l20 -1l-2 -64l-17 -2v-49z" />
    <glyph glyph-name="product" unicode="&#x220f;" 
d="M702 319l12 -224l-361 3l-299 -13l-4 228zM378 520l4 -62l-17 -2l-42 -125l-86 2l-126 -2l-36 116l-22 6l-3 62l201 1l1 -55l-13 -4l10 -32l19 32l-7 3v56zM702 471l-87 2l-25 -81h-19l3 69l19 3l3 56l-208 -1l3 -61l14 -2l-1 -72l-15 -1l-1 -53l312 5zM215 133l180 -4
l-3 52h-15l-3 62l17 2l1 44l-94 -6l1 -44l12 -1l1 -33l-45 77l-187 2l1 -47l16 -5l3 -60l-12 -3v-54h27l72 6l-5 46l-18 7l-5 44zM537 132l146 -8l-3 136l-59 -4l-14 -72l-26 -3l1 62l15 3l-2 51l-193 -7l1 -44l20 -1l-2 -64l-17 -2v-49z" />
    <glyph glyph-name="summation" unicode="&#x2211;" 
d="M702 319l12 -224l-361 3l-299 -13l-4 228zM378 520l4 -62l-17 -2l-42 -125l-86 2l-126 -2l-36 116l-22 6l-3 62l201 1l1 -55l-13 -4l10 -32l19 32l-7 3v56zM702 471l-87 2l-25 -81h-19l3 69l19 3l3 56l-208 -1l3 -61l14 -2l-1 -72l-15 -1l-1 -53l312 5zM215 133l180 -4
l-3 52h-15l-3 62l17 2l1 44l-94 -6l1 -44l12 -1l1 -33l-45 77l-187 2l1 -47l16 -5l3 -60l-12 -3v-54h27l72 6l-5 46l-18 7l-5 44zM537 132l146 -8l-3 136l-59 -4l-14 -72l-26 -3l1 62l15 3l-2 51l-193 -7l1 -44l20 -1l-2 -64l-17 -2v-49z" />
    <glyph glyph-name="minus" unicode="&#x2212;" 
d="M702 319l12 -224l-361 3l-299 -13l-4 228zM378 520l4 -62l-17 -2l-42 -125l-86 2l-126 -2l-36 116l-22 6l-3 62l201 1l1 -55l-13 -4l10 -32l19 32l-7 3v56zM702 471l-87 2l-25 -81h-19l3 69l19 3l3 56l-208 -1l3 -61l14 -2l-1 -72l-15 -1l-1 -53l312 5zM215 133l180 -4
l-3 52h-15l-3 62l17 2l1 44l-94 -6l1 -44l12 -1l1 -33l-45 77l-187 2l1 -47l16 -5l3 -60l-12 -3v-54h27l72 6l-5 46l-18 7l-5 44zM537 132l146 -8l-3 136l-59 -4l-14 -72l-26 -3l1 62l15 3l-2 51l-193 -7l1 -44l20 -1l-2 -64l-17 -2v-49z" />
    <glyph glyph-name="radical" unicode="&#x221a;" 
d="M702 319l12 -224l-361 3l-299 -13l-4 228zM378 520l4 -62l-17 -2l-42 -125l-86 2l-126 -2l-36 116l-22 6l-3 62l201 1l1 -55l-13 -4l10 -32l19 32l-7 3v56zM702 471l-87 2l-25 -81h-19l3 69l19 3l3 56l-208 -1l3 -61l14 -2l-1 -72l-15 -1l-1 -53l312 5zM215 133l180 -4
l-3 52h-15l-3 62l17 2l1 44l-94 -6l1 -44l12 -1l1 -33l-45 77l-187 2l1 -47l16 -5l3 -60l-12 -3v-54h27l72 6l-5 46l-18 7l-5 44zM537 132l146 -8l-3 136l-59 -4l-14 -72l-26 -3l1 62l15 3l-2 51l-193 -7l1 -44l20 -1l-2 -64l-17 -2v-49z" />
    <glyph glyph-name="infinity" unicode="&#x221e;" 
d="M702 319l12 -224l-361 3l-299 -13l-4 228zM378 520l4 -62l-17 -2l-42 -125l-86 2l-126 -2l-36 116l-22 6l-3 62l201 1l1 -55l-13 -4l10 -32l19 32l-7 3v56zM702 471l-87 2l-25 -81h-19l3 69l19 3l3 56l-208 -1l3 -61l14 -2l-1 -72l-15 -1l-1 -53l312 5zM215 133l180 -4
l-3 52h-15l-3 62l17 2l1 44l-94 -6l1 -44l12 -1l1 -33l-45 77l-187 2l1 -47l16 -5l3 -60l-12 -3v-54h27l72 6l-5 46l-18 7l-5 44zM537 132l146 -8l-3 136l-59 -4l-14 -72l-26 -3l1 62l15 3l-2 51l-193 -7l1 -44l20 -1l-2 -64l-17 -2v-49z" />
    <glyph glyph-name="integral" unicode="&#x222b;" 
d="M702 319l12 -224l-361 3l-299 -13l-4 228zM378 520l4 -62l-17 -2l-42 -125l-86 2l-126 -2l-36 116l-22 6l-3 62l201 1l1 -55l-13 -4l10 -32l19 32l-7 3v56zM702 471l-87 2l-25 -81h-19l3 69l19 3l3 56l-208 -1l3 -61l14 -2l-1 -72l-15 -1l-1 -53l312 5zM215 133l180 -4
l-3 52h-15l-3 62l17 2l1 44l-94 -6l1 -44l12 -1l1 -33l-45 77l-187 2l1 -47l16 -5l3 -60l-12 -3v-54h27l72 6l-5 46l-18 7l-5 44zM537 132l146 -8l-3 136l-59 -4l-14 -72l-26 -3l1 62l15 3l-2 51l-193 -7l1 -44l20 -1l-2 -64l-17 -2v-49z" />
    <glyph glyph-name="approxequal" unicode="&#x2248;" 
d="M702 319l12 -224l-361 3l-299 -13l-4 228zM378 520l4 -62l-17 -2l-42 -125l-86 2l-126 -2l-36 116l-22 6l-3 62l201 1l1 -55l-13 -4l10 -32l19 32l-7 3v56zM702 471l-87 2l-25 -81h-19l3 69l19 3l3 56l-208 -1l3 -61l14 -2l-1 -72l-15 -1l-1 -53l312 5zM215 133l180 -4
l-3 52h-15l-3 62l17 2l1 44l-94 -6l1 -44l12 -1l1 -33l-45 77l-187 2l1 -47l16 -5l3 -60l-12 -3v-54h27l72 6l-5 46l-18 7l-5 44zM537 132l146 -8l-3 136l-59 -4l-14 -72l-26 -3l1 62l15 3l-2 51l-193 -7l1 -44l20 -1l-2 -64l-17 -2v-49z" />
    <glyph glyph-name="notequal" unicode="&#x2260;" 
d="M702 319l12 -224l-361 3l-299 -13l-4 228zM378 520l4 -62l-17 -2l-42 -125l-86 2l-126 -2l-36 116l-22 6l-3 62l201 1l1 -55l-13 -4l10 -32l19 32l-7 3v56zM702 471l-87 2l-25 -81h-19l3 69l19 3l3 56l-208 -1l3 -61l14 -2l-1 -72l-15 -1l-1 -53l312 5zM215 133l180 -4
l-3 52h-15l-3 62l17 2l1 44l-94 -6l1 -44l12 -1l1 -33l-45 77l-187 2l1 -47l16 -5l3 -60l-12 -3v-54h27l72 6l-5 46l-18 7l-5 44zM537 132l146 -8l-3 136l-59 -4l-14 -72l-26 -3l1 62l15 3l-2 51l-193 -7l1 -44l20 -1l-2 -64l-17 -2v-49z" />
    <glyph glyph-name="lessequal" unicode="&#x2264;" 
d="M702 319l12 -224l-361 3l-299 -13l-4 228zM378 520l4 -62l-17 -2l-42 -125l-86 2l-126 -2l-36 116l-22 6l-3 62l201 1l1 -55l-13 -4l10 -32l19 32l-7 3v56zM702 471l-87 2l-25 -81h-19l3 69l19 3l3 56l-208 -1l3 -61l14 -2l-1 -72l-15 -1l-1 -53l312 5zM215 133l180 -4
l-3 52h-15l-3 62l17 2l1 44l-94 -6l1 -44l12 -1l1 -33l-45 77l-187 2l1 -47l16 -5l3 -60l-12 -3v-54h27l72 6l-5 46l-18 7l-5 44zM537 132l146 -8l-3 136l-59 -4l-14 -72l-26 -3l1 62l15 3l-2 51l-193 -7l1 -44l20 -1l-2 -64l-17 -2v-49z" />
    <glyph glyph-name="greaterequal" unicode="&#x2265;" 
d="M702 319l12 -224l-361 3l-299 -13l-4 228zM378 520l4 -62l-17 -2l-42 -125l-86 2l-126 -2l-36 116l-22 6l-3 62l201 1l1 -55l-13 -4l10 -32l19 32l-7 3v56zM702 471l-87 2l-25 -81h-19l3 69l19 3l3 56l-208 -1l3 -61l14 -2l-1 -72l-15 -1l-1 -53l312 5zM215 133l180 -4
l-3 52h-15l-3 62l17 2l1 44l-94 -6l1 -44l12 -1l1 -33l-45 77l-187 2l1 -47l16 -5l3 -60l-12 -3v-54h27l72 6l-5 46l-18 7l-5 44zM537 132l146 -8l-3 136l-59 -4l-14 -72l-26 -3l1 62l15 3l-2 51l-193 -7l1 -44l20 -1l-2 -64l-17 -2v-49z" />
    <glyph glyph-name="lozenge" unicode="&#x25ca;" 
d="M702 319l12 -224l-361 3l-299 -13l-4 228zM378 520l4 -62l-17 -2l-42 -125l-86 2l-126 -2l-36 116l-22 6l-3 62l201 1l1 -55l-13 -4l10 -32l19 32l-7 3v56zM702 471l-87 2l-25 -81h-19l3 69l19 3l3 56l-208 -1l3 -61l14 -2l-1 -72l-15 -1l-1 -53l312 5zM215 133l180 -4
l-3 52h-15l-3 62l17 2l1 44l-94 -6l1 -44l12 -1l1 -33l-45 77l-187 2l1 -47l16 -5l3 -60l-12 -3v-54h27l72 6l-5 46l-18 7l-5 44zM537 132l146 -8l-3 136l-59 -4l-14 -72l-26 -3l1 62l15 3l-2 51l-193 -7l1 -44l20 -1l-2 -64l-17 -2v-49z" />
    <glyph glyph-name="uniF000" unicode="&#xf000;" horiz-adv-x="1364" 
d="M1309 800v-800h-1254v800h1254zM697 411h529v110l-70 47h70v120h-529v-277zM695 112h530v127h-342v150h-188v-277zM587 411l89 58v143l-89 76h-440v-277h440zM470 112h215l-129 139l129 138h-215l-59 -68l-59 68h-214l129 -138l-129 -139h214l59 68zM1038 607v-20h-153
v20h153zM1038 511v-20h-153v20h153zM488 568v-38h-153v38h153z" />
    <glyph glyph-name="uniFB01" unicode="&#xfb01;" 
d="M702 319l12 -224l-361 3l-299 -13l-4 228zM378 520l4 -62l-17 -2l-42 -125l-86 2l-126 -2l-36 116l-22 6l-3 62l201 1l1 -55l-13 -4l10 -32l19 32l-7 3v56zM702 471l-87 2l-25 -81h-19l3 69l19 3l3 56l-208 -1l3 -61l14 -2l-1 -72l-15 -1l-1 -53l312 5zM215 133l180 -4
l-3 52h-15l-3 62l17 2l1 44l-94 -6l1 -44l12 -1l1 -33l-45 77l-187 2l1 -47l16 -5l3 -60l-12 -3v-54h27l72 6l-5 46l-18 7l-5 44zM537 132l146 -8l-3 136l-59 -4l-14 -72l-26 -3l1 62l15 3l-2 51l-193 -7l1 -44l20 -1l-2 -64l-17 -2v-49z" />
    <glyph glyph-name="uniFB02" unicode="&#xfb02;" 
d="M702 319l12 -224l-361 3l-299 -13l-4 228zM378 520l4 -62l-17 -2l-42 -125l-86 2l-126 -2l-36 116l-22 6l-3 62l201 1l1 -55l-13 -4l10 -32l19 32l-7 3v56zM702 471l-87 2l-25 -81h-19l3 69l19 3l3 56l-208 -1l3 -61l14 -2l-1 -72l-15 -1l-1 -53l312 5zM215 133l180 -4
l-3 52h-15l-3 62l17 2l1 44l-94 -6l1 -44l12 -1l1 -33l-45 77l-187 2l1 -47l16 -5l3 -60l-12 -3v-54h27l72 6l-5 46l-18 7l-5 44zM537 132l146 -8l-3 136l-59 -4l-14 -72l-26 -3l1 62l15 3l-2 51l-193 -7l1 -44l20 -1l-2 -64l-17 -2v-49z" />
  </font>
</defs>
</svg>
