<svg style="display: none">
    <defs>
        <style>
            .cls-1 {
            stroke-linecap: round;
            stroke-linejoin: round;
            stroke-width: 2px;
            }
        </style>
        <symbol id="icon_view">
            <path class="cls-1" d="M21.5,12S18,17.5,12,17.5,2.5,12,2.5,12,6,6.5,12,6.5,21.5,12,21.5,12ZM12,9.5A2.5,2.5,0,1,0,14.5,12,2.5,2.5,0,0,0,12,9.5Z" />
        </symbol>
        <symbol id="icon_locker">
            <path class="cls-1" d="M13,21.5H11a5,5,0,0,1-5-5V11.5455A2.0455,2.0455,0,0,1,8.0455,9.5h7.909A2.0455,2.0455,0,0,1,18,11.5455V16.5A5,5,0,0,1,13,21.5Zm-1-8A2.5,2.5,0,1,0,14.5,16,2.5,2.5,0,0,0,12,13.5Z" />
            <path class="cls-1" d="M9.5,9.5V5a2.5,2.5,0,0,1,5,0V5a2.5,2.5,0,0,0-5,0Z" />
        </symbol>
        <symbol id="icon_maximize">
            <polygon class="cls-1" points="12 3.037 12 1 1 1 1 12 3.038 12 1 12 1 1 12 1 12 3.037"/>
            <rect class="cls-1" x="6.5" y="6.5" width="13.5" height="13.5"/>
        </symbol>
        <symbol id="icon_share">
            <path class="cls-1" d="M12,2.5,17.5,8,12,13.5M17,8H11.5a5,5,0,0,0-5,5v8.5" />
        </symbol>
        <symbol id="icon_remove">
            <path class="cls-1" d="M21.5,6.5l-19,11m0-11,19,11" />
        </symbol>
        <symbol id="icon_add">
            <path class="cls-1" d="M12,6.5v11M2.5,12h19" />
        </symbol>
        <symbol id="icon_chevrons">
            <path class="cls-1" d="M2.5,13.9375l9.5-5.75,9.5,5.75m-4,1.875-5.5-3-5.5,3" />
        </symbol>
        <symbol id="icon_chevron">
            <polyline class="cls-1" points="20 13.375 10.5 7.625 1 13.375" />
        </symbol>
        <symbol id="icon_user">
            <path class="cls-1" d="M20.8344,21.5a9.5041,9.5041,0,0,0-17.6688,0,9.5041,9.5041,0,0,1,17.6688,0Z"/>
            <circle class="cls-1" cx="9.8344" cy="6.5" r="5.5" transform="translate(2.1656 1.5002)"/>
        </symbol>
        <symbol id="icon_local">
            <path class="cls-1" d="M17.046,10.19,12,21.5,6.9537,10.191a5.5,5.5,0,1,1,10.0923.0006M12,5.5A2.5,2.5,0,1,0,14.5,8,2.5,2.5,0,0,0,12,5.5Z" />
        </symbol>
        <symbol id="icon_people">
            <path class="cls-1" d="M16.5,18.25h5a5.5,5.5,0,0,0-5.5-5.5h0a5.5072,5.5072,0,0,0-1.3758.1735A5.5072,5.5072,0,0,1,16,12.75h0a5.5,5.5,0,0,1,5.5,5.5h-5Z" />
            <path class="cls-1" d="M2.5,18.25h0A5.5,5.5,0,0,1,8,12.75H8a5.5,5.5,0,0,1,5.5,5.5H2.5ZM8,5.75a2.5,2.5,0,1,0,2.5,2.5A2.5,2.5,0,0,0,8,5.75Zm8,0a2.5,2.5,0,1,0,2.5,2.5A2.5,2.5,0,0,0,16,5.75Z" />
        </symbol>
        <symbol id="icon_home">
            <path class="cls-1" d="M2.5,21.5h6V20A3.5,3.5,0,0,1,12,16.5h0A3.5,3.5,0,0,1,15.5,20v1.5h6V8.5L12,2.5l-9.5,6Z" />
        </symbol>
        <symbol id="icon_logo">
            <path class="cls-1" d="M20.0442,6.9439A9.5008,9.5008,0,1,1,5.318,5.2472" />
            <path class="cls-1" d="M5.318,5.2472A9.5015,9.5015,0,0,1,20.0442,6.9439M5.319,5.2466,13,16l7.044-9.0565" />
        </symbol>
    </defs>
</svg>