<svg xmlns="http://www.w3.org/2000/svg" width="20" height="20" viewBox="0 0 20 20"><defs><style>.cls-1{fill:#ff3838;}</style></defs><title>icon</title><g id="circle"><path d="M12,22A10,10,0,1,1,22,12,10.0114,10.0114,0,0,1,12,22ZM12,4a8,8,0,1,0,8,8A8.0092,8.0092,0,0,0,12,4Z" transform="translate(-2 -2)"/></g><g id="arrow"><path d="M7.5,22a1,1,0,0,1-.707-1.707L15.0859,12,6.793,3.707A1,1,0,1,1,8.207,2.293l9,9a.9994.9994,0,0,1,0,1.414l-9,9A.9967.9967,0,0,1,7.5,22Z" transform="translate(-2 -2)"/></g><g id="logo"><path d="M22,12A10,10,0,1,1,12,2,10,10,0,0,1,22,12ZM12,5a7,7,0,1,0,7,7A7,7,0,0,0,12,5Z" transform="translate(-2 -2)"/><path class="cls-1" d="M18.9354,11.0442A7.0429,7.0429,0,0,1,19,12.0027a6.9675,6.9675,0,0,1-4.0062,6.3215ZM5,12.0027a6.9931,6.9931,0,0,0,6.0308,6.9246L6.4323,7.76A6.995,6.995,0,0,0,5,12.0027Zm7-7A7.0049,7.0049,0,0,0,7.6385,6.5212l4.8677,8.9276L17.5677,7.76A6.9775,6.9775,0,0,0,12,5.0027Z" transform="translate(-2 -2)"/></g></svg>